<?xml version="1.0" standalone="no"?>
<!DOCTYPE svg PUBLIC "-//W3C//DTD SVG 20010904//EN"
 "http://www.w3.org/TR/2001/REC-SVG-20010904/DTD/svg10.dtd">
<svg version="1.0" xmlns="http://www.w3.org/2000/svg"
 width="5000.000000pt" height="5000.000000pt" viewBox="0 0 5000.000000 5000.000000"
 preserveAspectRatio="xMidYMid meet">

<g transform="translate(0.000000,5000.000000) scale(0.100000,-0.100000)"
fill="#000000" stroke="none">
<path d="M20976 36086 c-925 -565 -1484 -913 -1492 -928 -22 -39 -1144 -5017
-1144 -5075 0 -51 37 -115 2035 -3530 1119 -1913 2045 -3486 2056 -3495 20
-17 120 -18 1783 -18 l1761 0 755 -885 c799 -935 779 -914 854 -902 32 5 2954
1783 2993 1821 19 18 93 363 552 2567 292 1400 531 2551 531 2558 0 7 -4 9
-10 6 -6 -3 -10 5 -10 19 0 30 -3978 6895 -4023 6944 l-31 32 -1595 0 -1596 1
-930 894 c-920 886 -930 895 -970 895 -35 -1 -219 -110 -1519 -904z m2346
-113 l802 -768 -632 -3 c-348 -1 -915 -1 -1261 0 l-630 3 202 340 c111 187
316 533 455 768 140 235 256 427 258 427 3 0 365 -345 806 -767z m-1524 -69
l-413 -699 -745 -2 -745 -3 40 24 c22 14 542 331 1155 705 613 374 1116 678
1118 677 1 -2 -183 -318 -410 -702z m-561 -936 c-208 -353 -317 -533 -325
-531 -10 2 -971 559 -980 567 -3 3 295 6 662 6 l668 0 -25 -42z m6341 -3074
c3144 -3017 3398 -3263 3377 -3251 -54 29 -9852 5680 -9858 5686 -6 6 291 522
379 659 l14 22 1420 0 1420 0 3248 -3116z m1708 21 c986 -1699 1801 -3103
1810 -3119 11 -19 12 -26 4 -21 -10 6 -6257 5994 -6460 6191 l-45 44 1449 -2
1450 -3 1792 -3090z m-9061 2700 c325 -186 591 -339 593 -340 1 -1 -484 -826
-1080 -1833 -595 -1007 -1084 -1830 -1085 -1828 -3 3 952 4301 963 4334 2 7 7
11 11 9 5 -2 274 -156 598 -342z m5775 -3330 c2747 -1584 4987 -2881 4979
-2883 -7 -1 -2781 403 -6163 898 -3381 495 -6155 900 -6163 900 -10 0 -13 6
-8 17 18 49 2342 3953 2351 3951 5 -2 2257 -1299 5004 -2883z m-980 -2210
c3374 -492 6141 -896 6149 -898 8 -1 -1402 -816 -3134 -1810 l-3147 -1808 -77
69 c-42 37 -1432 1259 -3088 2715 -1657 1457 -3013 2649 -3013 2651 0 1 39 -3
88 -10 48 -7 2848 -416 6222 -909z m-3276 -2004 c1629 -1431 2959 -2606 2957
-2610 -1 -3 -492 -279 -1089 -613 l-1086 -607 -17 27 c-10 15 -851 1454 -1869
3197 -1019 1744 -1862 3186 -1873 3205 -19 32 -20 34 -2 20 10 -8 1351 -1187
2979 -2619z m8184 -1455 l-1393 -2405 -1237 -1 -1237 0 -513 601 c-282 331
-514 604 -515 608 -3 7 6280 3611 6285 3606 2 -2 -623 -1086 -1390 -2409z
m938 -188 l-461 -2218 -828 0 c-693 0 -827 2 -820 14 4 7 584 1006 1287 2219
704 1214 1281 2206 1282 2204 1 -1 -206 -1000 -460 -2219z m-5527 -1663 l471
-550 -735 -3 c-404 -1 -1066 -1 -1471 0 l-736 3 989 552 c543 304 993 551 999
550 6 -1 224 -249 483 -552z m3067 -772 c-67 -127 -865 -1498 -870 -1496 -8 2
-1296 1512 -1296 1519 0 2 491 4 1090 4 l1091 0 -15 -27z m1719 19 c-6 -5
-516 -316 -1135 -692 -619 -376 -1136 -690 -1149 -699 -24 -15 -24 -15 -11 9
17 31 777 1337 796 1368 l14 22 747 0 c411 0 743 -4 738 -8z"/>
<path d="M36870 17525 c-151 -29 -330 -62 -397 -75 l-123 -22 0 -64 0 -64 73
0 c141 -1 274 -37 319 -87 35 -39 48 -104 58 -292 5 -102 10 -332 10 -510 l0
-324 -42 40 c-114 104 -244 177 -383 214 -111 30 -341 32 -470 5 -373 -79
-658 -329 -789 -693 -97 -272 -97 -603 0 -876 154 -430 509 -693 966 -714 149
-7 247 6 362 48 137 50 267 151 373 290 20 27 41 49 45 49 4 0 8 -88 8 -196
l0 -197 78 6 c42 3 200 14 350 23 l272 18 0 73 0 73 -70 0 c-132 0 -209 31
-244 99 -8 15 -22 60 -32 101 -16 69 -18 189 -21 1603 l-4 1527 -32 -1 c-18
-1 -156 -25 -307 -54z m-542 -1386 c135 -34 254 -106 332 -200 117 -141 130
-198 137 -606 10 -568 -23 -733 -176 -883 -147 -145 -405 -221 -595 -176 -270
64 -434 308 -485 726 -16 125 -13 386 5 509 8 58 31 153 50 211 121 364 376
510 732 419z"/>
<path d="M22313 17450 c-151 -76 -189 -268 -77 -398 47 -56 113 -86 188 -86
78 0 129 17 178 62 63 57 83 103 83 197 0 74 -3 85 -32 131 -77 120 -213 158
-340 94z"/>
<path d="M38315 17456 c-249 -117 -174 -487 99 -490 160 -2 276 120 264 277
-6 75 -25 114 -79 167 -73 71 -191 90 -284 46z"/>
<path d="M9510 17374 c-187 -20 -316 -64 -467 -161 -294 -188 -532 -546 -638
-961 -46 -181 -57 -269 -62 -497 -7 -303 18 -480 103 -735 35 -103 142 -320
200 -405 107 -158 236 -289 375 -382 78 -53 225 -121 314 -144 101 -27 288
-36 393 -19 227 36 448 161 634 359 453 481 588 1315 328 2022 -84 228 -212
431 -370 590 -215 215 -429 318 -695 332 -44 3 -96 3 -115 1z m225 -219 c253
-65 389 -262 480 -693 65 -312 80 -965 30 -1347 -44 -332 -134 -572 -265 -702
-161 -159 -452 -198 -680 -91 -295 140 -437 650 -416 1493 10 395 42 637 117
870 86 269 218 416 419 469 74 20 240 20 315 1z"/>
<path d="M12182 17370 c-159 -22 -354 -96 -479 -181 -171 -116 -284 -267 -345
-459 -20 -65 -23 -95 -23 -230 1 -143 3 -161 28 -235 35 -99 62 -146 124 -215
62 -69 149 -125 236 -152 99 -30 240 -23 317 16 68 34 86 49 122 105 44 69 40
76 -49 89 -100 16 -170 49 -237 112 -95 90 -140 214 -139 385 1 174 47 295
154 410 109 116 229 165 406 165 172 0 290 -47 391 -154 116 -124 170 -273
179 -492 20 -466 -149 -831 -642 -1384 -193 -217 -662 -675 -882 -861 l-52
-44 0 -72 -1 -73 975 0 975 0 5 23 c7 29 155 859 155 869 0 5 -34 8 -76 6
l-76 -3 -33 -91 c-87 -245 -175 -346 -331 -379 -94 -20 -984 -22 -984 -2 0 6
57 55 128 109 776 588 1197 1090 1316 1570 40 162 38 386 -5 531 -75 251 -257
451 -513 561 -133 57 -235 76 -421 81 -88 2 -188 0 -223 -5z"/>
<path d="M13918 17334 c-5 -4 -8 -42 -8 -84 l0 -77 78 -6 c175 -13 257 -51
298 -141 13 -29 29 -86 34 -127 5 -43 9 -533 9 -1184 0 -1205 0 -1219 -54
-1311 -50 -85 -127 -118 -322 -137 l-123 -11 0 -78 0 -78 844 0 c494 0 896 4
971 10 244 20 433 70 640 170 473 228 765 639 836 1177 17 132 7 409 -20 546
-128 639 -597 1118 -1256 1281 -185 46 -251 49 -1105 53 -448 3 -818 1 -822
-3z m1610 -215 c269 -29 487 -132 667 -314 230 -233 359 -566 384 -995 29
-490 -62 -863 -275 -1130 -61 -76 -88 -102 -170 -162 -210 -153 -446 -215
-779 -205 -186 5 -246 17 -352 69 -121 59 -200 168 -223 306 -7 47 -10 419 -8
1240 3 1149 3 1174 22 1188 16 11 78 14 328 14 170 0 352 -5 406 -11z"/>
<path d="M31120 16707 c-83 -167 -192 -284 -387 -414 l-113 -75 0 -79 0 -79
125 0 125 0 0 -793 c0 -679 2 -801 15 -852 60 -233 248 -355 546 -355 199 0
354 54 458 158 32 32 70 81 84 108 l26 50 -53 42 -53 41 -37 -49 c-77 -101
-153 -139 -276 -140 -137 0 -198 28 -240 111 -53 103 -53 107 -57 922 l-4 757
280 0 281 0 0 100 0 100 -280 0 -280 0 0 265 0 265 -60 0 -59 0 -41 -83z"/>
<path d="M18537 16355 c-103 -17 -240 -61 -329 -106 -297 -149 -489 -390 -579
-724 -32 -117 -33 -126 -33 -330 -1 -181 2 -222 21 -301 52 -220 139 -380 288
-529 113 -113 213 -178 353 -231 149 -56 234 -69 437 -68 162 0 190 3 276 27
216 59 411 181 556 346 l45 52 -63 58 -64 59 -85 -82 c-192 -184 -361 -253
-593 -244 -86 4 -129 11 -185 31 -176 62 -326 204 -415 394 -82 176 -125 466
-99 668 l7 50 743 5 c729 5 744 5 759 25 12 16 14 41 9 135 -20 407 -232 675
-596 755 -105 23 -342 28 -453 10z m317 -215 c164 -51 264 -182 274 -360 4
-81 3 -88 -21 -115 l-25 -30 -487 -3 -487 -3 7 33 c31 145 93 266 185 359 61
61 88 81 144 103 38 15 94 31 125 36 77 12 210 3 285 -20z"/>
<path d="M20542 16350 c-300 -79 -489 -346 -469 -665 10 -155 55 -250 174
-366 88 -86 170 -145 433 -314 405 -259 440 -294 440 -450 0 -128 -47 -218
-140 -269 -99 -54 -201 -68 -326 -45 -203 37 -370 214 -463 493 l-28 81 -51 3
-52 3 0 -360 0 -361 45 0 c44 0 44 0 80 65 20 36 41 67 46 70 5 4 29 -8 54
-25 128 -88 288 -138 467 -147 256 -13 456 58 596 212 157 172 196 463 90 675
-54 108 -188 233 -403 376 -99 65 -219 143 -267 172 -208 125 -328 242 -344
334 -9 58 -7 128 5 176 13 48 80 126 131 152 89 45 242 44 338 -2 97 -46 192
-170 263 -343 l38 -90 55 -3 56 -3 0 306 0 305 -37 0 c-31 0 -45 -8 -84 -46
l-46 -46 -54 30 c-30 16 -90 41 -134 56 -155 50 -290 58 -413 26z"/>
<path d="M22288 16300 c-191 -38 -372 -74 -403 -80 l-55 -11 0 -73 0 -73 103
-6 c191 -11 252 -50 283 -182 14 -59 17 -161 21 -663 6 -736 1 -787 -85 -875
-44 -45 -123 -73 -237 -83 l-75 -7 0 -73 0 -74 600 0 600 0 0 74 0 73 -78 6
c-156 12 -241 68 -276 181 -30 95 -36 269 -36 1109 0 455 -3 827 -7 826 -5 0
-164 -32 -355 -69z"/>
<path d="M24135 16363 c-134 -19 -293 -81 -400 -158 -224 -160 -335 -441 -280
-710 45 -217 197 -428 364 -506 27 -13 50 -29 51 -35 0 -7 -17 -15 -37 -18
-153 -28 -302 -137 -360 -263 -21 -46 -26 -71 -26 -137 2 -165 77 -272 241
-340 81 -34 185 -53 437 -82 302 -34 570 -72 630 -89 118 -34 232 -138 276
-252 30 -80 30 -206 0 -285 -41 -107 -148 -197 -286 -242 -164 -52 -507 -68
-689 -32 -217 42 -355 133 -402 263 -18 50 -18 158 1 218 29 99 112 189 201
220 l37 12 -47 28 c-139 81 -308 73 -426 -21 -99 -78 -153 -198 -152 -339 0
-97 19 -158 76 -239 106 -152 317 -262 614 -318 101 -20 151 -23 362 -23 260
0 349 9 507 50 300 79 482 232 555 465 19 62 23 96 22 200 -1 209 -50 336
-184 471 -116 118 -258 190 -442 223 -104 20 -432 61 -598 76 -299 27 -362 41
-405 92 -35 42 -33 88 5 132 48 55 114 71 410 101 191 20 318 47 435 91 286
110 444 322 470 630 12 144 -23 340 -77 429 -10 17 -18 34 -18 38 0 4 29 22
65 39 96 44 174 45 241 1 136 -89 135 -88 211 -88 57 0 77 4 99 21 53 39 69
70 67 133 -1 74 -24 121 -80 171 -56 49 -116 70 -218 77 -68 5 -91 2 -156 -20
-87 -30 -171 -77 -264 -148 -39 -30 -70 -47 -78 -43 -6 4 -30 22 -52 40 -86
70 -242 133 -394 159 -77 14 -235 18 -306 8z m262 -174 c106 -40 189 -154 230
-315 25 -101 25 -418 0 -527 -37 -156 -118 -271 -225 -320 -69 -31 -181 -28
-256 6 -109 50 -192 166 -238 334 -29 107 -31 382 -4 488 43 165 135 290 246
333 75 28 171 29 247 1z"/>
<path d="M26140 16294 c-168 -40 -315 -76 -328 -79 -21 -5 -23 -10 -20 -73 l3
-67 95 -6 c156 -9 200 -40 237 -165 14 -52 17 -136 21 -711 4 -690 1 -752 -41
-832 -36 -72 -75 -88 -274 -117 l-33 -5 0 -69 0 -70 550 0 550 0 0 69 c0 79 8
73 -115 86 -33 4 -82 17 -110 29 -41 18 -55 32 -78 74 -41 76 -50 217 -44 752
5 489 9 525 67 643 69 140 179 252 316 321 89 45 178 66 284 66 275 -1 401
-129 457 -470 20 -120 31 -987 15 -1149 -20 -194 -70 -249 -250 -272 l-92 -12
0 -68 0 -69 545 0 545 0 0 70 0 69 -32 5 c-18 3 -53 8 -78 11 -119 16 -177 57
-206 147 -15 47 -18 131 -24 698 -6 526 -11 662 -24 737 -42 238 -122 357
-301 443 -157 76 -336 104 -525 81 -134 -16 -199 -36 -325 -96 -129 -62 -215
-125 -325 -237 -53 -55 -81 -77 -84 -67 -3 8 -16 101 -28 208 -13 107 -27 195
-33 196 -5 2 -147 -30 -315 -71z"/>
<path d="M29310 16354 c-108 -23 -223 -86 -304 -168 -110 -110 -170 -245 -182
-410 -21 -267 84 -426 436 -658 96 -63 241 -158 323 -211 217 -142 270 -197
286 -296 17 -111 -24 -240 -95 -299 -113 -93 -332 -107 -491 -31 -148 70 -286
259 -350 476 l-18 63 -52 0 -53 0 0 -361 0 -360 47 3 c46 3 48 4 83 65 19 34
39 65 43 69 4 4 27 -7 51 -25 64 -45 179 -97 271 -122 110 -30 365 -33 470 -6
183 49 332 163 405 311 66 132 85 287 55 429 -40 190 -193 347 -569 582 -435
273 -496 334 -496 505 0 179 117 285 315 283 114 -1 180 -28 259 -107 67 -65
125 -160 177 -288 l31 -78 54 0 54 0 0 305 0 305 -37 0 c-31 0 -45 -8 -83 -45
l-47 -46 -44 25 c-24 14 -84 39 -134 56 -155 51 -279 62 -405 34z"/>
<path d="M38275 16299 c-192 -38 -374 -74 -402 -80 l-53 -10 0 -73 0 -73 103
-6 c177 -10 244 -46 276 -145 25 -81 32 -295 29 -852 -4 -638 -4 -633 -80
-716 -47 -51 -126 -81 -245 -91 l-73 -6 0 -73 0 -74 600 0 600 0 0 74 0 73
-78 6 c-155 12 -241 68 -276 180 -29 94 -36 290 -36 1120 0 449 -3 817 -7 816
-5 -1 -165 -32 -358 -70z"/>
<path d="M40288 16355 c-48 -8 -128 -28 -177 -44 -406 -136 -679 -440 -768
-851 -24 -116 -24 -352 1 -470 84 -403 345 -713 718 -853 145 -55 241 -71 423
-71 182 0 262 13 417 69 377 136 658 462 738 856 28 134 27 335 0 470 -89 437
-444 782 -910 884 -104 23 -333 28 -442 10z m347 -206 c124 -27 275 -128 355
-238 124 -169 184 -358 196 -616 25 -514 -186 -908 -536 -1000 -86 -23 -244
-23 -330 0 -220 58 -396 252 -471 520 -67 241 -67 571 1 813 110 393 420 599
785 521z"/>
<path d="M32127 16323 c-8 -8 -9 -143 -1 -143 26 0 158 -24 195 -36 56 -18
102 -64 125 -124 16 -40 18 -113 25 -670 5 -506 10 -644 23 -725 52 -318 175
-453 491 -541 104 -28 321 -26 429 4 103 30 213 81 289 136 80 56 194 176 253
266 26 38 50 70 54 70 9 0 13 -38 36 -302 l18 -198 55 1 c31 0 187 10 346 22
l290 22 3 71 3 71 -93 6 c-170 12 -217 40 -243 142 -26 101 -35 406 -35 1188
l0 747 -380 0 -380 0 0 -75 c0 -41 4 -75 9 -75 4 0 48 -7 95 -15 100 -17 152
-41 189 -84 48 -58 52 -98 52 -601 0 -518 -2 -537 -69 -692 -120 -278 -289
-438 -496 -469 -241 -36 -399 77 -470 335 -48 172 -52 249 -57 984 l-5 692
-372 0 c-205 0 -376 -3 -379 -7z"/>
</g>
</svg>
