<?xml version="1.0" standalone="no"?>
<!DOCTYPE svg PUBLIC "-//W3C//DTD SVG 20010904//EN"
 "http://www.w3.org/TR/2001/REC-SVG-20010904/DTD/svg10.dtd">
<svg version="1.0" xmlns="http://www.w3.org/2000/svg"
 width="1500.000000pt" height="848.000000pt" viewBox="0 0 1500.000000 848.000000"
 preserveAspectRatio="xMidYMid meet">

<g transform="translate(0.000000,848.000000) scale(0.100000,-0.100000)"
fill="#000000" stroke="none">
<path d="M1972 6803 c-103 -50 -109 -204 -11 -272 l38 -26 1 -227 c0 -126 -2
-228 -5 -228 -4 0 -191 249 -253 337 -22 30 -22 34 -7 62 52 101 -29 231 -144
231 -138 0 -204 -158 -110 -265 30 -34 90 -62 109 -50 5 3 10 3 10 -2 0 -4 11
-104 25 -222 14 -118 24 -215 23 -217 -2 -1 -65 35 -140 82 l-137 85 5 43 c14
99 -94 188 -190 156 -47 -15 -92 -69 -101 -119 -14 -86 60 -175 147 -176 38 0
39 -1 236 -262 108 -144 200 -262 205 -262 4 -1 67 24 140 55 238 100 378 143
646 199 69 14 126 26 127 28 2 2 9 149 15 327 l12 325 38 37 c106 103 26 270
-123 256 -116 -12 -167 -152 -89 -240 l28 -32 -55 -135 c-30 -75 -58 -139 -62
-144 -3 -4 -52 83 -109 193 -82 160 -99 201 -87 206 8 3 25 26 37 51 64 132
-85 272 -219 206z"/>
<path d="M2490 5610 c-220 -45 -365 -87 -538 -157 -302 -120 -303 -120 -310
-208 -4 -50 18 -172 36 -202 6 -9 27 -6 82 11 41 14 76 23 77 22 1 -1 -18 -80
-43 -176 -230 -892 -288 -1136 -288 -1215 -1 -97 22 -153 90 -215 104 -95 185
-110 614 -110 l329 0 10 38 c6 20 44 174 86 341 60 239 73 306 63 312 -7 5
-100 8 -206 7 -176 -1 -215 3 -200 17 6 6 628 8 634 3 2 -2 -37 -163 -86 -357
-50 -194 -90 -355 -90 -357 0 -2 157 -4 349 -4 l349 0 11 33 c11 36 501 1981
501 1991 0 3 -157 5 -349 5 -322 0 -350 -1 -355 -17 -3 -9 -38 -143 -77 -297
-39 -154 -73 -283 -76 -287 -6 -11 -633 -10 -633 0 0 8 131 526 133 528 1 1
55 18 119 38 l117 36 -18 53 c-39 111 -77 165 -134 186 -37 14 -39 14 -197
-19z m1297 -772 c-71 -282 -182 -722 -246 -978 l-118 -465 -317 -3 c-299 -2
-317 -1 -312 15 12 43 176 698 176 705 0 4 -157 8 -349 8 -309 0 -350 -2 -355
-16 -12 -31 -6 -63 13 -74 12 -6 96 -10 205 -10 102 0 186 -3 186 -7 0 -5 -36
-145 -79 -313 l-78 -305 -289 -2 c-403 -2 -503 16 -600 111 -57 56 -84 121
-84 203 0 40 321 1341 338 1372 9 15 60 37 68 29 2 -3 -71 -301 -163 -664
-178 -706 -186 -751 -149 -824 26 -49 55 -79 101 -102 87 -45 127 -50 433 -55
160 -3 292 -2 292 1 0 6 99 400 116 464 l6 22 -158 0 c-235 0 -263 20 -229
164 l18 76 423 0 c233 0 424 -2 424 -4 0 -2 -40 -164 -90 -359 -49 -196 -90
-358 -90 -361 0 -6 490 -9 490 -3 0 1 103 410 229 910 l229 907 -247 0 -246 0
-74 -297 c-41 -164 -79 -301 -85 -305 -12 -8 -809 -10 -830 -2 -8 3 9 89 64
304 l75 300 34 10 c19 5 37 7 39 5 3 -2 -25 -121 -62 -263 -36 -142 -66 -264
-66 -270 0 -9 89 -12 349 -12 l350 0 15 53 c8 28 42 163 77 300 l62 247 317 0
316 0 -129 -512z"/>
<path d="M4574 5382 c-6 -4 -102 -369 -214 -812 -180 -712 -204 -814 -204
-885 0 -65 5 -89 24 -129 49 -98 151 -163 292 -186 35 -5 210 -10 390 -10
l327 0 10 38 c43 163 161 640 161 648 0 8 -63 12 -206 12 -189 1 -225 4 -213
16 2 3 146 6 319 7 312 1 315 1 313 -19 -2 -17 -148 -606 -169 -680 l-6 -22
352 2 353 3 119 470 c315 1248 388 1541 388 1547 0 4 -157 7 -349 8 l-350 0
-9 -32 c-5 -18 -40 -156 -78 -305 l-69 -273 -317 0 c-175 0 -318 3 -318 8 0 4
31 129 69 277 38 149 71 282 75 297 l6 26 -343 1 c-188 0 -347 -3 -353 -7z
m580 -322 c-41 -159 -74 -294 -74 -300 0 -7 117 -10 350 -10 l349 0 15 53 c8
28 43 163 77 300 l62 247 317 0 317 0 -183 -727 c-101 -401 -212 -840 -247
-978 l-63 -250 -318 -3 c-299 -2 -317 -1 -312 15 16 56 176 692 176 702 0 8
-94 11 -349 11 -309 0 -350 -2 -355 -16 -12 -31 -6 -63 13 -74 12 -6 97 -10
206 -10 l187 0 -7 -27 c-3 -16 -38 -156 -78 -313 l-72 -285 -270 -3 c-292 -3
-403 6 -505 41 -134 45 -211 162 -196 296 3 31 69 306 146 611 77 305 166 657
197 783 l58 227 317 0 316 0 -74 -290z"/>
<path d="M4455 4527 c-145 -575 -189 -766 -189 -810 2 -79 35 -142 98 -184 88
-60 173 -72 502 -73 l241 0 62 238 c33 132 61 241 61 245 0 3 -76 7 -169 9
-154 3 -172 5 -198 24 -37 28 -39 43 -18 136 l18 78 424 0 c232 0 423 -2 423
-5 0 -6 -166 -673 -176 -707 -5 -17 11 -18 240 -18 224 0 245 1 250 18 3 9
105 412 226 895 122 483 224 885 227 893 5 12 -28 14 -243 12 l-247 -3 -75
-295 c-42 -162 -80 -298 -86 -302 -6 -4 -194 -7 -419 -7 -337 -1 -409 2 -413
13 -3 7 27 139 65 292 39 154 71 285 71 292 0 9 -55 12 -242 12 l-243 0 -190
-753z"/>
<path d="M11250 5381 c0 -6 -9 -11 -21 -11 -41 0 -145 -32 -217 -66 -47 -23
-97 -58 -143 -101 -118 -112 -126 -133 -301 -828 -132 -525 -151 -611 -152
-685 -1 -74 3 -92 27 -142 32 -65 70 -101 144 -135 95 -44 169 -53 433 -53
l245 0 73 291 c40 161 70 294 68 297 -19 19 -38 -34 -100 -283 l-69 -277 -236
5 c-167 4 -254 10 -299 21 -161 41 -240 125 -249 266 -4 58 11 127 149 680
173 690 181 713 283 815 69 69 153 115 270 147 78 22 96 23 649 26 465 2 582
0 645 -12 198 -37 284 -124 284 -286 -1 -100 -142 -665 -196 -782 -63 -136
-173 -229 -305 -257 -35 -7 -211 -11 -515 -11 -459 0 -487 -2 -487 -32 0 -4
208 -8 463 -8 498 0 544 4 653 54 107 49 205 168 255 312 11 32 54 194 95 359
60 241 75 315 75 376 1 163 -75 250 -267 306 -52 15 -128 17 -656 21 -421 2
-598 0 -598 -7z"/>
<path d="M7613 5365 c-246 -45 -413 -168 -485 -358 -10 -27 -87 -320 -170
-650 -157 -629 -166 -678 -139 -774 19 -71 68 -124 151 -166 113 -56 212 -68
562 -65 l283 3 85 345 86 345 -177 5 c-98 3 -181 8 -184 12 -7 7 133 588 146
610 6 10 387 14 396 4 4 -4 -190 -797 -204 -834 -4 -10 70 -12 363 -10 l368 3
103 415 c58 228 108 419 113 424 9 9 374 11 389 1 6 -3 -133 -597 -144 -612
-5 -8 -70 -12 -215 -12 l-165 -1 -84 -337 c-46 -186 -86 -344 -89 -350 -5 -16
511 -18 638 -3 195 24 335 84 437 188 105 106 114 131 284 807 131 520 151
611 152 685 1 51 -4 101 -12 124 -20 59 -91 129 -161 160 -119 54 -172 58
-697 52 -570 -7 -467 -7 -1068 -1 -379 3 -506 1 -562 -10z m1046 -34 c35 -9
56 -9 100 1 41 10 178 13 526 13 421 0 477 -2 535 -18 190 -52 271 -152 257
-316 -3 -36 -71 -329 -151 -651 -166 -663 -176 -693 -280 -795 -70 -68 -156
-115 -273 -147 -70 -19 -109 -22 -400 -26 -233 -3 -323 -1 -323 7 0 10 107
445 140 572 l10 36 158 5 c109 4 169 11 195 21 20 9 37 17 37 19 1 2 36 144
79 317 64 258 75 315 64 326 -41 41 -459 28 -464 -14 0 -3 -46 -187 -102 -409
l-102 -403 -328 -2 c-180 -1 -327 1 -327 5 0 4 45 188 101 410 114 458 114
422 2 434 -98 10 -313 0 -348 -17 -29 -14 -31 -20 -107 -319 -42 -168 -77
-312 -77 -321 -2 -30 53 -42 210 -43 127 -1 149 -3 147 -16 -2 -8 -37 -149
-78 -312 l-75 -298 -286 0 c-210 0 -308 4 -363 15 -138 26 -215 72 -262 157
-53 98 -49 126 124 812 170 675 176 692 281 796 94 93 206 143 379 170 87 13
947 6 1001 -9z"/>
<path d="M7662 5269 c-197 -26 -337 -110 -411 -248 -22 -43 -66 -200 -175
-638 -80 -320 -148 -605 -152 -635 -14 -121 50 -212 181 -258 66 -22 86 -24
347 -28 261 -4 276 -3 281 15 3 10 29 110 57 223 28 113 53 212 56 221 4 14
-13 17 -122 23 -136 7 -183 20 -209 60 -16 24 -14 37 63 351 44 179 87 337 96
351 44 66 141 88 366 82 167 -4 204 -14 235 -62 15 -22 10 -47 -75 -387 -50
-200 -93 -372 -96 -381 -5 -17 11 -18 249 -18 l254 0 93 368 c50 202 100 380
109 396 37 66 137 89 360 84 175 -3 227 -18 245 -70 12 -35 -142 -668 -170
-699 -46 -51 -159 -79 -321 -79 l-62 0 -10 -37 c-92 -359 -111 -432 -111 -438
0 -4 125 -5 278 -2 220 3 289 7 337 21 154 43 267 126 320 233 41 84 324 1217
325 1298 0 142 -94 226 -286 254 -102 15 -904 8 -975 -8 -46 -11 -66 -11 -105
-1 -58 15 -870 23 -972 9z"/>
<path d="M11245 5269 c-202 -30 -339 -121 -404 -271 -21 -46 -305 -1163 -315
-1239 -11 -79 10 -146 63 -198 77 -77 200 -104 450 -99 l144 3 62 243 61 242
-38 1 c-21 1 -60 2 -86 3 -27 0 -60 9 -76 19 -23 15 -27 24 -24 55 l3 37 580
5 580 5 53 24 c66 30 137 106 180 195 23 46 56 163 108 374 67 268 75 315 71
374 -7 107 -56 167 -173 211 -58 22 -67 22 -619 24 -308 0 -587 -3 -620 -8z
m732 -498 c34 -16 44 -27 53 -58 18 -60 -5 -107 -67 -136 -46 -21 -62 -22
-395 -25 -320 -3 -348 -2 -348 13 0 9 12 64 27 121 l28 104 330 0 c303 0 333
-2 372 -19z"/>
<path d="M11326 4712 c-3 -5 -8 -28 -12 -50 l-6 -42 315 3 c226 1 319 5 328
14 18 18 2 62 -27 73 -31 12 -591 13 -598 2z m560 -31 c77 -20 18 -26 -251
-23 -157 1 -285 6 -285 11 0 4 3 11 7 15 9 9 494 7 529 -3z"/>
<path d="M3616 3883 c-15 -54 -126 -503 -126 -512 0 -8 77 -11 272 -9 l272 3
67 268 67 267 -274 0 c-251 0 -273 -1 -278 -17z m514 -15 c-2 -14 -119 -470
-121 -473 -5 -4 -489 -11 -489 -7 0 3 96 387 111 445 l10 37 244 0 c135 0 245
-1 245 -2z"/>
<path d="M3708 3813 c-22 -3 -30 -12 -37 -41 -22 -82 -81 -321 -81 -326 0 -4
85 -6 189 -6 l189 0 45 182 c25 100 44 185 42 189 -5 7 -304 9 -347 2z"/>
<path d="M6270 3894 c0 -3 -29 -119 -65 -258 -36 -139 -65 -258 -65 -265 0 -8
68 -11 272 -9 l271 3 63 248 c35 137 66 257 69 268 6 18 -3 19 -269 19 -152 0
-276 -2 -276 -6z m506 -41 c-3 -10 -28 -110 -55 -223 -28 -113 -53 -214 -56
-225 -6 -19 -14 -20 -246 -18 -133 1 -242 3 -244 5 -3 3 64 280 106 441 l10
37 245 0 c229 0 245 -1 240 -17z"/>
<path d="M6348 3813 c-10 -3 -18 -5 -18 -6 0 -1 -20 -82 -45 -179 -25 -98 -45
-180 -45 -183 0 -3 85 -5 188 -5 l189 0 47 183 c25 100 46 185 46 189 0 7
-333 8 -362 1z"/>
<path d="M9880 3898 c0 -2 -31 -123 -69 -270 l-69 -268 274 0 274 0 6 28 c4
15 35 136 69 270 l62 242 -274 0 c-150 0 -273 -1 -273 -2z m506 -43 c-3 -9
-30 -115 -61 -237 -30 -121 -56 -223 -58 -225 -8 -7 -487 -8 -487 0 0 8 108
444 115 465 3 9 63 12 251 12 217 0 245 -2 240 -15z"/>
<path d="M9940 3815 c0 -2 -20 -81 -45 -177 -25 -95 -45 -179 -45 -185 0 -10
44 -13 188 -13 l187 0 43 168 c23 92 45 176 48 188 5 20 3 21 -185 22 -105 0
-191 -1 -191 -3z"/>
<path d="M3455 3236 c-143 -66 -201 -257 -125 -407 25 -49 99 -113 148 -127
167 -50 327 53 352 227 25 179 -96 331 -265 331 -42 0 -75 -7 -110 -24z m207
-123 c83 -77 74 -219 -18 -290 -90 -68 -219 7 -232 136 -6 63 10 110 52 150
58 57 141 58 198 4z"/>
<path d="M4491 2998 c-23 -145 -44 -271 -47 -280 -5 -16 2 -18 50 -18 64 0 58
-14 82 170 10 74 20 138 24 142 3 5 30 -64 60 -152 30 -88 60 -162 67 -164 23
-9 40 22 93 175 38 107 56 146 60 133 4 -10 13 -66 20 -124 7 -58 14 -112 16
-120 1 -8 3 -25 3 -37 1 -22 4 -23 114 -23 l112 0 20 53 21 52 95 3 96 3 20
-53 20 -53 57 -3 c31 -2 56 1 56 5 0 4 -45 129 -100 277 -55 148 -100 270
-100 272 0 2 -20 4 -44 4 l-44 0 -30 -77 c-16 -43 -62 -165 -102 -271 -40
-106 -75 -190 -77 -188 -3 2 -20 109 -39 237 -48 330 -39 299 -84 299 -44 0
-33 21 -121 -228 -24 -68 -45 -120 -47 -115 -2 4 -31 82 -65 173 l-62 165 -41
3 -40 3 -43 -263z m822 1 c15 -44 25 -84 23 -88 -7 -11 -111 -8 -110 4 4 28
48 165 53 165 3 0 18 -36 34 -81z"/>
<path d="M5640 3238 c-49 -34 -70 -67 -76 -123 -8 -79 14 -111 111 -161 93
-47 115 -75 96 -121 -25 -61 -91 -62 -141 -2 l-25 30 -33 -34 -34 -35 33 -36
c43 -50 78 -66 141 -66 110 1 173 66 173 180 0 86 -20 113 -122 165 -70 36
-78 43 -81 72 -6 57 61 82 112 42 26 -21 28 -21 42 -3 36 46 38 56 13 75 -58
43 -158 51 -209 17z"/>
<path d="M8982 3247 c-52 -16 -126 -89 -152 -149 -31 -72 -31 -174 -1 -244 77
-176 294 -221 427 -89 143 143 103 393 -76 474 -50 23 -141 26 -198 8z m176
-124 c41 -31 72 -91 72 -141 0 -103 -90 -198 -174 -185 -73 11 -136 98 -136
187 0 54 16 89 58 130 52 49 122 52 180 9z"/>
<path d="M10486 3246 c-60 -22 -108 -67 -141 -131 -27 -52 -30 -69 -30 -144 0
-74 4 -93 27 -137 48 -91 132 -143 231 -144 32 0 73 7 92 14 34 15 35 16 35
75 0 34 -2 61 -5 61 -3 0 -18 -9 -34 -21 -127 -94 -291 72 -225 229 44 107
154 142 234 76 l30 -26 0 66 c0 57 -3 67 -22 77 -35 19 -147 21 -192 5z"/>
<path d="M11428 3246 c-172 -61 -233 -303 -115 -457 73 -96 215 -128 325 -73
170 85 204 335 63 472 -68 66 -182 90 -273 58z m165 -113 c34 -17 74 -77 82
-125 15 -79 -49 -186 -123 -207 -68 -20 -146 32 -177 118 -18 51 -18 64 -5
111 14 50 58 99 105 115 42 14 72 11 118 -12z"/>
<path d="M11840 2980 l0 -280 55 0 55 0 2 180 3 181 139 -186 c138 -185 138
-185 177 -185 l39 0 0 280 0 280 -55 0 -55 0 0 -182 0 -181 -140 186 -140 187
-40 0 -40 0 0 -280z"/>
<path d="M12471 3242 c-90 -45 -113 -172 -46 -242 15 -16 50 -38 79 -50 64
-28 96 -57 96 -87 0 -58 -46 -90 -100 -72 -16 6 -30 14 -30 17 -1 4 -10 18
-21 31 l-20 24 -29 -28 c-37 -36 -37 -46 0 -89 38 -43 86 -60 157 -54 95 8
145 63 151 166 5 93 -16 124 -123 177 -72 36 -80 43 -83 72 -6 57 61 82 112
42 30 -23 40 -20 62 22 19 38 9 52 -53 73 -60 21 -110 20 -152 -2z"/>
<path d="M1580 2975 l0 -276 51 3 50 3 1 118 c0 78 4 117 12 118 6 1 49 1 96
1 l85 1 3 -122 3 -121 54 0 55 0 0 275 0 275 -55 0 -55 0 0 -110 0 -111 -97 3
-98 3 0 105 0 105 -53 3 -52 3 0 -276z"/>
<path d="M2060 2975 l0 -275 55 0 55 0 0 275 0 275 -55 0 -55 0 0 -275z"/>
<path d="M2250 2975 l0 -275 50 0 50 0 0 100 c0 97 1 100 23 101 129 4 194 49
204 142 8 66 -4 113 -38 151 -36 41 -91 56 -209 56 l-80 0 0 -275z m203 153
c9 -11 17 -35 17 -53 0 -18 -8 -42 -17 -53 -22 -25 -88 -38 -96 -19 -6 17 -6
140 0 150 9 15 77 -3 96 -25z"/>
<path d="M2835 3238 c-3 -7 -4 -130 -3 -273 l3 -260 53 0 52 0 4 120 c2 66 4
120 5 120 1 0 43 -1 93 -2 l93 -1 3 -122 3 -121 52 3 52 3 0 270 0 270 -52 3
-53 3 0 -111 0 -111 -97 3 -98 3 -1 105 0 105 -52 3 c-36 2 -54 -1 -57 -10z"/>
<path d="M3890 2976 l0 -276 50 0 50 0 0 99 0 99 31 6 c17 3 46 6 64 6 42 0
95 36 118 80 24 46 18 150 -10 189 -38 50 -77 64 -195 69 l-108 5 0 -277z
m204 151 c13 -16 17 -32 13 -61 -7 -50 -23 -66 -72 -69 l-40 -2 -3 84 -3 84
43 -7 c26 -4 50 -15 62 -29z"/>
<path d="M5900 3200 l0 -50 55 0 55 0 0 -225 0 -225 55 0 55 0 0 225 0 225 55
0 55 0 0 50 0 50 -165 0 -165 0 0 -50z"/>
<path d="M6270 2975 l0 -275 140 0 140 0 0 48 0 47 -82 3 c-45 2 -83 4 -84 5
-1 1 -4 32 -6 69 l-4 67 86 3 85 3 1 35 c1 19 -2 40 -5 46 -6 10 -11 11 -106
13 l-55 1 0 55 0 55 85 0 85 0 0 50 0 50 -140 0 -140 0 0 -275z"/>
<path d="M6620 2975 l0 -275 55 0 55 0 0 108 0 107 59 -98 c32 -54 63 -103 68
-108 6 -6 38 -9 72 -7 l61 3 -74 109 c-72 105 -80 126 -52 126 23 0 65 55 76
101 22 89 -23 175 -106 198 -21 6 -78 11 -126 11 l-88 0 0 -275z m203 154 c40
-49 2 -129 -63 -129 l-30 0 0 81 0 82 38 -6 c20 -4 45 -16 55 -28z"/>
<path d="M7020 2975 l0 -276 143 3 142 3 -2 40 c-1 22 -2 44 -2 48 -1 5 -38 7
-83 5 l-83 -3 -3 73 -3 72 86 0 85 0 0 45 c0 53 -10 58 -105 53 l-60 -3 -3 57
-3 57 88 3 88 3 0 45 0 45 -143 3 -142 3 0 -276z"/>
<path d="M7370 2976 l0 -276 93 0 c128 0 187 19 247 80 131 130 95 363 -67
441 -38 18 -69 24 -160 27 l-113 5 0 -277z m207 163 c77 -29 116 -117 94 -213
-7 -28 -17 -58 -24 -67 -24 -32 -81 -59 -124 -59 l-43 0 0 175 0 175 34 0 c19
0 47 -5 63 -11z"/>
<path d="M8050 2974 l0 -275 53 3 52 3 3 98 3 97 32 0 c118 0 187 65 187 174
0 132 -63 176 -250 176 l-80 0 0 -276z m203 159 c21 -20 23 -80 2 -110 -15
-22 -66 -35 -87 -22 -9 6 -15 110 -9 155 2 11 76 -7 94 -23z"/>
<path d="M8430 2976 l0 -276 50 0 c60 0 63 7 58 128 -2 45 1 78 5 73 4 -4 33
-50 65 -102 l57 -94 63 -3 c34 -2 62 1 62 5 0 4 -31 55 -70 112 -66 100 -74
121 -46 121 15 0 48 35 66 69 19 37 16 125 -7 163 -32 55 -72 71 -195 76
l-108 5 0 -277z m199 159 c7 -7 14 -32 15 -55 1 -52 -30 -83 -78 -78 l-31 3 2
75 c1 41 2 77 2 79 2 8 77 -12 90 -24z"/>
<path d="M9390 2976 l0 -276 98 0 c127 0 181 18 243 80 130 130 93 363 -68
441 -38 18 -69 24 -160 27 l-113 5 0 -277z m207 163 c77 -29 116 -117 94 -214
-18 -78 -65 -120 -146 -127 l-40 -3 -3 178 -2 177 34 0 c19 0 47 -5 63 -11z"/>
<path d="M9859 3243 c0 -4 0 -97 0 -205 0 -226 9 -262 77 -314 35 -27 44 -29
124 -29 79 0 90 2 122 27 66 51 73 77 76 316 l3 212 -55 0 -56 0 0 -197 c0
-179 -2 -201 -20 -230 -37 -61 -125 -52 -152 15 -6 15 -11 109 -12 217 l-1
190 -52 3 c-29 2 -53 -1 -54 -5z"/>
<path d="M10730 3200 l0 -50 55 0 55 0 0 -225 0 -225 55 0 55 0 0 225 0 225
55 0 55 0 0 50 0 50 -165 0 -165 0 0 -50z"/>
<path d="M11090 2975 l0 -275 55 0 55 0 0 275 0 275 -55 0 -55 0 0 -275z"/>
</g>
</svg>
