<?xml version="1.0" standalone="no"?>
<!DOCTYPE svg PUBLIC "-//W3C//DTD SVG 20010904//EN"
 "http://www.w3.org/TR/2001/REC-SVG-20010904/DTD/svg10.dtd">
<svg version="1.0" xmlns="http://www.w3.org/2000/svg"
 width="288.000000pt" height="299.000000pt" viewBox="0 0 288.000000 299.000000"
 preserveAspectRatio="xMidYMid meet">

<g transform="translate(0.000000,299.000000) scale(0.100000,-0.100000)"
fill="#000000" stroke="none">
<path d="M773 2770 c-48 -11 -119 -57 -147 -93 -66 -88 -92 -177 -107 -370
-10 -124 -9 -147 7 -208 10 -38 15 -71 12 -74 -2 -3 -47 -22 -99 -43 -72 -30
-98 -45 -111 -68 -22 -37 -71 -221 -63 -234 4 -6 211 -10 581 -10 488 0 575 2
580 14 6 16 -41 197 -61 236 -10 19 -39 35 -114 64 -56 21 -101 44 -101 51 0
7 7 32 16 56 13 36 15 69 9 179 -8 159 -24 248 -61 331 -60 134 -199 203 -341
169z m21 -221 c14 -57 -1 -108 -44 -151 -44 -44 -94 -52 -125 -18 -35 39 -28
155 12 196 11 11 32 14 82 12 l66 -3 9 -36z m86 -29 l0 -70 -33 0 -33 0 0 70
0 70 33 0 33 0 0 -70z m190 38 c28 -46 27 -136 -1 -172 -57 -72 -169 8 -169
122 0 80 2 82 81 82 67 0 70 -1 89 -32z m-98 -214 c20 -10 42 -14 64 -9 l34 6
0 -66 c0 -36 -6 -81 -14 -99 -20 -49 -81 -112 -130 -135 -82 -40 -155 -22
-226 56 -57 61 -82 120 -78 186 l3 52 37 -3 c23 -2 46 3 60 12 32 23 207 22
250 0z m-370 -131 c4 -135 2 -156 -16 -150 -47 16 -43 276 5 277 4 0 9 -57 11
-127z m517 118 c9 -6 15 -37 18 -97 5 -99 -11 -166 -42 -173 -16 -3 -17 2 -12
35 4 22 7 85 7 142 0 101 3 110 29 93z m-57 -243 c-4 -40 -8 -43 -31 -29 -11
7 -9 15 10 40 12 17 23 30 24 28 1 -1 0 -19 -3 -39z m-392 -20 c0 -7 -40 -22
-45 -16 -1 1 0 18 3 37 l5 34 18 -24 c10 -13 19 -27 19 -31z m78 -90 c44 -66
50 -80 56 -148 4 -41 9 -90 13 -107 5 -33 5 -33 -35 -33 -38 0 -45 5 -99 66
-32 36 -60 70 -61 75 -2 5 8 19 22 30 33 26 26 36 -54 74 -57 27 -76 45 -46
45 7 0 19 -7 26 -16 8 -8 25 -14 39 -12 23 3 26 7 25 39 -1 33 2 38 30 47 17
5 32 10 33 11 1 1 24 -32 51 -71z m276 61 c21 -10 25 -18 23 -48 -2 -31 1 -36
21 -39 14 -2 33 5 45 16 15 13 28 17 42 12 17 -6 12 -11 -35 -35 -30 -15 -66
-35 -79 -43 l-23 -16 31 -25 30 -26 -62 -72 c-56 -66 -65 -72 -99 -73 -44 0
-45 2 -28 138 10 74 16 91 57 153 25 38 47 69 49 69 2 0 14 -5 28 -11z"/>
<path d="M645 2536 c-9 -13 -18 -39 -21 -58 -7 -42 9 -58 66 -65 38 -5 41 -4
55 30 8 20 15 55 15 77 l0 40 -50 0 c-41 0 -52 -4 -65 -24z"/>
<path d="M934 2545 c-8 -21 4 -85 22 -112 16 -25 46 -29 88 -13 31 11 35 50
12 105 -14 33 -17 35 -66 35 -36 0 -52 -4 -56 -15z"/>
<path d="M1995 1881 c-260 -65 -343 -211 -184 -326 40 -28 49 -41 49 -65 0
-35 23 -49 115 -74 142 -38 344 -28 460 23 41 18 45 23 45 55 0 29 5 38 29 50
15 8 42 31 59 51 56 63 55 110 -4 175 -98 109 -368 161 -569 111z m233 -202
l-58 -29 -57 29 -58 30 115 0 115 0 -57 -30z"/>
<path d="M618 1407 c-94 -24 -179 -51 -195 -63 -15 -11 -38 -40 -51 -65 -31
-59 -25 -102 27 -188 l41 -67 0 -209 0 -208 -54 -53 c-95 -93 -126 -189 -126
-396 l0 -108 571 0 570 0 -3 168 c-3 159 -4 170 -31 224 -15 31 -52 80 -82
110 l-55 53 0 208 0 208 40 66 c51 85 58 122 34 181 -32 76 -67 95 -260 141
-93 23 -190 41 -215 41 -24 -1 -119 -20 -211 -43z m260 -112 c24 -20 41 -25
83 -25 l53 0 -39 -40 -39 -40 -101 0 -101 0 -39 40 -39 40 53 0 c42 0 59 5 83
25 16 14 36 25 43 25 7 0 27 -11 43 -25z m202 -180 c72 -18 90 -29 73 -46 -9
-9 -33 -8 -95 4 -142 28 -241 31 -368 12 -149 -24 -174 -24 -178 -4 -2 13 14
20 80 33 46 8 92 18 103 20 45 11 322 -3 385 -19z m-210 -101 c102 0 205 -2
229 -2 l43 -2 -4 -87 c-3 -73 -9 -97 -33 -142 -58 -105 -151 -161 -270 -161
-83 0 -145 23 -203 75 -70 63 -96 121 -100 226 l-4 85 39 11 c21 6 56 8 78 5
22 -4 123 -7 225 -8z m-55 -464 c18 -20 18 -21 -25 -65 l-44 -45 -21 20 c-12
11 -26 41 -32 65 l-10 45 57 0 c44 0 61 -4 75 -20z m162 -25 c-6 -24 -20 -54
-32 -65 l-21 -20 -44 45 c-43 44 -43 45 -25 65 14 16 31 20 75 20 l57 0 -10
-45z m-92 -105 c21 -21 42 -37 47 -34 11 7 11 7 -23 -131 l-31 -125 -44 0
c-32 0 -44 4 -48 18 -7 25 -56 233 -56 238 0 3 4 3 9 0 5 -3 28 12 52 34 24
22 46 40 49 40 3 0 23 -18 45 -40z m303 -177 c-3 -15 -17 -18 -91 -21 -82 -3
-87 -2 -87 18 0 19 6 20 91 20 81 0 90 -2 87 -17z"/>
<path d="M802 1278 c-28 -28 -3 -72 39 -66 30 4 47 33 33 56 -14 21 -55 27
-72 10z"/>
<path d="M821 406 c-9 -10 -8 -16 3 -25 10 -9 16 -8 25 3 9 10 8 16 -3 25 -10
9 -16 8 -25 -3z"/>
<path d="M815 230 c-4 -7 -3 -16 3 -22 14 -14 45 -2 40 15 -6 16 -34 21 -43 7z"/>
<path d="M1930 1273 c0 -53 57 -191 98 -240 58 -67 147 -92 211 -59 40 21 100
91 127 150 26 56 51 153 41 162 -3 3 -39 0 -80 -6 -74 -12 -294 -9 -364 6 -28
5 -33 3 -33 -13z"/>
<path d="M1755 956 l-150 -61 -26 -100 c-14 -55 -29 -112 -33 -127 l-6 -28
280 0 c182 0 280 4 280 10 0 17 -180 370 -188 369 -4 -1 -74 -29 -157 -63z"/>
<path d="M2326 832 l-94 -187 -28 58 c-15 31 -31 57 -34 57 -5 0 -60 -105 -60
-115 0 -3 156 -5 346 -5 l346 0 -6 23 c-4 12 -19 69 -35 127 l-28 104 -114 46
c-63 25 -133 54 -156 63 l-43 17 -94 -188z"/>
<path d="M2135 860 l-29 -30 32 -33 32 -32 32 32 32 33 -29 30 c-16 16 -32 30
-35 30 -3 0 -19 -14 -35 -30z"/>
</g>
</svg>
