<?xml version="1.0" standalone="no"?>
<!DOCTYPE svg PUBLIC "-//W3C//DTD SVG 20010904//EN"
 "http://www.w3.org/TR/2001/REC-SVG-20010904/DTD/svg10.dtd">
<svg version="1.0" xmlns="http://www.w3.org/2000/svg"
 width="1920.000000pt" height="996.000000pt" viewBox="0 0 1920.000000 996.000000"
 preserveAspectRatio="xMidYMid meet">

<g transform="translate(0.000000,996.000000) scale(0.100000,-0.100000)"
fill="#000000" stroke="none">
<path d="M0 4980 l0 -4980 9600 0 9600 0 0 4980 0 4980 -9600 0 -9600 0 0
-4980z m9012 4380 l353 -340 610 0 c336 0 615 -4 622 -8 23 -15 1556 -2667
1556 -2692 0 -35 -402 -1953 -411 -1961 -31 -28 -1146 -699 -1161 -699 -13 0
-115 111 -313 344 l-293 345 -683 3 -683 3 -311 530 c-170 292 -403 690 -517
885 -115 195 -326 557 -471 804 -144 247 -265 456 -267 465 -4 14 413 1882
435 1948 8 27 1124 712 1159 713 15 0 130 -104 375 -340z m5280 -7718 c3 -697
-2 -656 88 -668 44 -6 50 -10 50 -30 0 -12 -3 -25 -7 -27 -5 -3 -65 -8 -135
-11 l-128 -8 0 74 0 74 -59 -57 c-74 -73 -136 -94 -250 -87 -106 7 -179 38
-251 105 -144 132 -181 357 -91 548 102 219 397 300 581 161 l35 -27 3 186 c3
202 -3 229 -48 252 -14 7 -47 13 -73 13 -47 0 -48 1 -45 27 3 26 6 28 143 54
77 15 150 27 162 28 l22 1 3 -608z m-5611 539 c52 -52 33 -138 -36 -161 -75
-25 -151 50 -125 124 24 70 108 90 161 37z m6138 3 c56 -47 36 -141 -34 -164
-48 -16 -101 8 -121 55 -41 98 73 179 155 109z m-10976 -52 c130 -64 239 -215
287 -397 27 -105 30 -289 5 -390 -19 -77 -72 -201 -105 -243 -55 -71 -128
-135 -189 -165 -60 -29 -74 -32 -161 -32 -86 0 -101 3 -162 32 -132 62 -246
214 -294 393 -28 100 -25 310 5 414 46 165 143 305 254 371 82 47 115 56 208
52 73 -3 96 -8 152 -35z m1099 0 c77 -38 130 -92 166 -171 22 -47 26 -69 25
-141 -1 -106 -30 -189 -108 -305 -62 -94 -246 -276 -373 -370 -45 -33 -81 -63
-82 -67 0 -12 340 -9 384 3 51 14 87 54 113 121 17 44 25 54 47 56 23 3 26 0
25 -25 0 -15 -12 -93 -27 -173 l-27 -145 -375 0 -375 0 -3 25 c-2 20 18 43
109 125 210 188 390 401 449 530 48 105 64 248 39 340 -44 158 -227 217 -346
112 -50 -44 -73 -98 -73 -175 0 -103 47 -168 138 -187 36 -7 36 -8 22 -36 -32
-59 -161 -66 -227 -12 -21 16 -49 50 -63 74 -21 37 -25 57 -25 129 0 69 5 93
23 127 47 89 117 147 227 186 39 13 75 17 160 15 102 -3 116 -6 177 -36z
m1053 19 c163 -19 291 -79 400 -186 242 -237 245 -653 6 -878 -45 -42 -96 -78
-143 -101 -134 -64 -162 -68 -575 -73 l-373 -5 0 36 0 36 45 0 c67 0 113 23
130 64 21 51 22 940 1 990 -15 36 -54 56 -112 56 -32 0 -34 2 -34 35 l0 35
288 0 c158 0 323 -4 367 -9z m6015 -306 l0 -105 110 0 110 0 0 -35 0 -35 -110
0 -110 0 0 -275 c0 -158 5 -295 11 -324 13 -63 45 -91 101 -91 47 0 75 13 105
48 18 22 24 24 37 13 25 -21 19 -40 -22 -81 -42 -43 -92 -60 -171 -60 -113 0
-188 47 -210 133 -7 29 -11 152 -11 341 l0 296 -45 0 c-43 0 -45 1 -45 29 0
24 10 37 63 74 61 44 102 92 128 150 8 18 20 27 36 27 23 0 23 -2 23 -105z
m-4663 -86 c58 -22 123 -86 148 -146 9 -21 19 -71 22 -110 l6 -73 -293 0 -293
0 5 -109 c4 -98 8 -116 37 -175 89 -182 291 -217 444 -77 l44 41 24 -26 24
-26 -50 -46 c-27 -25 -79 -59 -115 -76 -61 -29 -72 -31 -180 -31 -109 0 -118
2 -182 33 -130 63 -207 174 -229 328 -21 146 26 298 122 394 116 116 309 157
466 99z m726 -1 c44 -19 49 -19 66 -4 36 33 41 21 41 -99 0 -108 -1 -115 -20
-115 -14 0 -26 14 -41 50 -23 55 -84 116 -124 126 -79 20 -155 -33 -155 -106
0 -56 40 -97 190 -195 145 -94 204 -154 219 -223 17 -82 -9 -171 -66 -223 -57
-53 -90 -64 -198 -64 -94 0 -104 2 -158 32 l-59 32 -16 -29 c-9 -17 -25 -30
-34 -30 -16 0 -18 13 -18 141 0 137 0 140 21 137 15 -2 27 -19 43 -56 23 -59
64 -114 102 -139 59 -39 172 -33 214 12 30 32 38 106 15 141 -9 14 -75 64
-146 111 -209 136 -239 172 -239 283 0 72 19 123 63 168 78 82 183 99 300 50z
m1337 16 c41 -9 85 -27 109 -45 l41 -29 47 34 c62 44 121 60 170 47 51 -14 83
-48 83 -87 0 -67 -61 -84 -131 -37 -39 26 -42 26 -82 12 -28 -10 -41 -20 -38
-29 2 -8 10 -37 18 -65 16 -57 10 -146 -14 -207 -8 -21 -38 -58 -65 -83 -59
-53 -133 -78 -278 -95 -108 -13 -144 -26 -148 -57 -6 -38 33 -51 190 -68 245
-26 288 -38 358 -101 62 -56 84 -105 84 -189 1 -124 -52 -196 -183 -246 -45
-18 -83 -23 -196 -27 -202 -6 -309 23 -389 103 -68 68 -70 160 -5 229 36 39
40 41 98 41 44 0 65 -5 78 -17 15 -15 15 -18 2 -18 -8 0 -28 -13 -44 -30 -22
-23 -29 -41 -33 -82 -5 -63 15 -95 81 -131 38 -20 56 -22 182 -22 155 1 187
10 239 64 40 42 47 113 16 169 -37 65 -73 79 -288 106 -246 32 -293 54 -308
148 -11 66 46 145 119 163 40 10 41 21 3 43 -43 25 -83 78 -107 142 -60 159
36 322 215 366 70 17 96 17 176 -2z m1243 -16 c55 -24 101 -72 118 -125 7 -23
14 -147 18 -318 4 -192 10 -287 18 -301 13 -22 60 -44 94 -44 14 0 19 -7 19
-30 l0 -30 -207 2 -208 3 -3 28 c-3 23 0 27 21 27 44 0 88 22 99 49 16 39 22
331 9 447 -6 55 -17 116 -25 136 -54 128 -232 130 -343 4 -58 -66 -63 -93 -63
-348 0 -211 1 -227 20 -251 14 -18 34 -28 65 -33 41 -6 45 -9 45 -35 l0 -29
-210 0 -210 0 0 29 c0 26 4 29 44 35 81 12 81 12 84 310 4 361 2 372 -83 384
-45 6 -50 10 -50 32 0 23 7 26 123 54 97 23 125 27 132 17 4 -7 10 -40 14 -74
3 -33 8 -62 10 -64 2 -3 25 15 50 40 112 107 284 142 419 85z m780 0 c44 -19
49 -19 66 -4 36 33 41 21 41 -99 0 -107 -1 -115 -19 -115 -14 0 -27 16 -44 53
-44 96 -109 138 -190 123 -47 -9 -78 -46 -84 -99 -5 -39 -2 -48 28 -82 19 -21
86 -72 149 -113 148 -95 206 -151 226 -217 32 -110 -16 -222 -121 -278 -33
-18 -57 -22 -135 -22 -87 0 -102 3 -158 31 l-63 31 -16 -29 c-10 -15 -25 -28
-35 -28 -16 0 -18 12 -18 141 0 138 0 140 21 137 16 -2 27 -18 42 -56 30 -79
90 -141 153 -157 108 -28 194 20 194 108 0 23 -7 53 -16 66 -9 12 -81 65 -160
117 -187 124 -224 168 -224 271 0 71 17 120 57 164 80 88 185 108 306 57z
m4265 1 c318 -110 404 -508 160 -735 -102 -93 -209 -131 -348 -121 -174 12
-321 120 -382 281 -33 86 -32 246 1 326 90 219 341 329 569 249z m-6998 -326
c0 -211 4 -363 11 -386 12 -44 38 -63 97 -73 38 -6 42 -9 42 -35 l0 -29 -230
0 -230 0 0 29 c0 27 4 30 42 36 59 10 86 31 98 74 12 45 13 492 0 546 -11 50
-28 62 -97 71 -51 6 -54 8 -51 32 3 25 9 28 133 53 72 15 142 27 158 28 l27 1
0 -347z m6140 0 c0 -211 4 -363 11 -386 12 -44 38 -63 97 -73 38 -6 42 -9 42
-35 l0 -29 -230 0 -230 0 0 29 c0 27 4 30 42 36 56 10 84 29 97 67 14 38 14
496 1 553 -11 50 -28 62 -97 71 -51 6 -54 8 -51 32 3 25 9 28 133 53 72 15
142 27 158 28 l27 1 0 -347z m-2208 30 c5 -345 10 -376 74 -433 30 -26 43 -30
90 -30 99 0 160 48 218 170 29 62 30 72 34 222 5 170 -2 256 -22 283 -7 9 -35
23 -62 30 -42 10 -49 16 -52 39 l-3 26 150 0 151 0 0 -352 c0 -212 4 -368 10
-390 9 -31 17 -39 48 -48 20 -5 47 -10 60 -10 17 0 22 -6 22 -24 0 -31 -7 -33
-152 -41 l-116 -7 -7 69 c-3 37 -9 81 -11 96 l-6 28 -27 -38 c-93 -128 -240
-181 -386 -138 -71 20 -136 79 -155 140 -8 25 -15 140 -19 315 -4 188 -10 282
-18 296 -12 22 -60 44 -93 44 -17 0 -34 43 -22 55 3 3 69 5 148 5 l142 0 4
-307z"/>
<path d="M8472 9316 l-173 -291 241 -3 c132 -1 347 -1 479 0 l238 3 -229 220
c-127 121 -264 252 -307 291 l-76 71 -173 -291z"/>
<path d="M8098 9296 c-229 -140 -424 -259 -435 -265 -13 -7 60 -10 267 -10
l285 0 153 261 c84 143 151 262 149 264 -2 2 -191 -110 -419 -250z"/>
<path d="M7837 8835 c100 -58 186 -105 191 -105 7 0 84 120 129 203 2 4 -110
7 -249 7 l-253 0 182 -105z"/>
<path d="M8237 8918 c-87 -140 -137 -232 -130 -238 4 -4 307 -180 673 -390
644 -371 1885 -1086 2685 -1548 215 -123 395 -227 400 -229 15 -7 -287 285
-1455 1405 l-1064 1022 -548 0 -548 0 -13 -22z"/>
<path d="M9573 8822 c67 -65 403 -388 747 -718 344 -329 847 -812 1118 -1072
271 -261 494 -473 496 -471 2 2 -306 537 -685 1189 l-688 1185 -555 3 -554 2
121 -118z"/>
<path d="M7530 8914 c0 -4 -263 -1187 -360 -1617 -4 -21 -6 -36 -3 -34 9 10
823 1390 823 1396 -1 6 -443 261 -453 261 -4 0 -7 -3 -7 -6z"/>
<path d="M8043 8598 c-6 -13 -207 -354 -447 -758 -371 -625 -434 -736 -419
-742 24 -9 4692 -690 4703 -686 5 2 -481 285 -1078 630 -598 344 -1455 838
-1904 1097 -449 259 -823 474 -831 477 -8 3 -18 -5 -24 -18z"/>
<path d="M7215 6992 c17 -16 237 -211 490 -433 253 -222 773 -678 1154 -1014
382 -335 699 -609 705 -607 9 3 1768 1011 2299 1318 105 60 107 62 75 68 -18
3 -265 39 -548 80 -283 42 -702 103 -930 136 -228 33 -737 108 -1130 165 -393
57 -902 132 -1130 165 -228 33 -539 78 -690 100 -151 22 -286 42 -300 45 -25
6 -25 6 5 -23z"/>
<path d="M7212 6884 c23 -38 885 -1514 1128 -1931 168 -287 308 -523 312 -523
8 0 839 463 835 466 -4 3 -1296 1139 -1767 1553 -458 403 -521 457 -508 435z"/>
<path d="M11925 6206 c-50 -29 -430 -248 -845 -486 -415 -238 -916 -525 -1113
-638 l-358 -205 24 -26 c13 -14 104 -119 201 -233 l177 -208 472 0 472 0 161
278 c88 152 328 566 533 920 205 354 371 645 369 647 -1 2 -44 -20 -93 -49z"/>
<path d="M11994 6057 c-130 -225 -921 -1589 -936 -1614 l-20 -33 319 0 318 0
176 848 c97 466 176 848 175 849 -1 1 -16 -21 -32 -50z"/>
<path d="M9175 4634 c-204 -114 -374 -210 -379 -215 -6 -5 226 -9 554 -9 535
0 562 1 548 18 -214 252 -324 380 -337 394 -15 17 -38 6 -386 -188z"/>
<path d="M10092 4322 c7 -11 119 -143 248 -295 194 -227 236 -273 244 -259 5
9 81 140 168 291 87 151 158 276 158 278 0 1 -187 3 -416 3 -402 0 -415 -1
-402 -18z"/>
<path d="M10844 4077 c-84 -144 -150 -264 -148 -266 2 -2 852 509 873 526 2 1
-126 3 -285 3 l-289 -1 -151 -262z"/>
<path d="M13806 1696 c-84 -31 -136 -113 -157 -247 -32 -206 42 -421 157 -459
61 -20 155 -9 210 26 98 60 117 125 112 367 -3 175 -8 194 -65 251 -60 61
-181 90 -257 62z"/>
<path d="M3585 2076 c-71 -31 -122 -117 -152 -256 -26 -123 -26 -471 1 -587
39 -170 101 -243 216 -251 86 -6 142 12 186 60 79 87 107 219 106 488 -1 323
-49 482 -163 540 -45 24 -148 26 -194 6z"/>
<path d="M5682 2068 c-15 -15 -17 -894 -2 -949 26 -94 157 -145 313 -119 113
18 175 47 237 109 90 90 126 184 136 356 20 325 -129 564 -377 604 -90 15
-292 14 -307 -1z"/>
<path d="M7096 1696 c-65 -24 -112 -82 -136 -167 l-9 -29 184 0 c157 0 186 2
200 17 33 32 -5 132 -62 166 -43 25 -128 31 -177 13z"/>
<path d="M9292 1719 c-81 -17 -128 -113 -120 -245 11 -161 114 -256 214 -195
77 47 107 238 55 356 -31 69 -83 99 -149 84z"/>
<path d="M15471 1695 c-56 -18 -124 -84 -151 -147 -33 -77 -46 -192 -32 -285
29 -190 137 -297 284 -280 130 16 213 116 239 291 19 125 -11 256 -77 343 -56
74 -172 108 -263 78z"/>
</g>
</svg>
