<?xml version="1.0" standalone="no"?>
<!DOCTYPE svg PUBLIC "-//W3C//DTD SVG 20010904//EN"
 "http://www.w3.org/TR/2001/REC-SVG-20010904/DTD/svg10.dtd">
<svg version="1.0" xmlns="http://www.w3.org/2000/svg"
 width="1920.000000pt" height="1920.000000pt" viewBox="0 0 1920.000000 1920.000000"
 preserveAspectRatio="xMidYMid meet">

<g transform="translate(0.000000,1920.000000) scale(0.100000,-0.100000)"
fill="#000000" stroke="none">
<path d="M0 9600 l0 -9600 9600 0 9600 0 0 9600 0 9600 -9600 0 -9600 0 0
-9600z m9012 4260 l353 -340 610 0 c336 0 615 -4 622 -8 7 -4 359 -606 784
-1337 580 -999 772 -1337 771 -1360 -1 -41 -401 -1948 -410 -1956 -31 -28
-1146 -699 -1161 -699 -14 0 -114 111 -313 344 l-293 345 -683 3 -683 3 -785
1340 c-431 737 -784 1346 -784 1353 0 16 427 1906 438 1939 8 27 1124 712
1159 713 15 0 129 -103 375 -340z m5280 -7718 c3 -697 -2 -656 88 -668 44 -6
50 -10 50 -30 0 -12 -3 -25 -7 -27 -5 -3 -65 -8 -135 -11 l-128 -8 0 74 0 74
-59 -57 c-74 -73 -136 -94 -250 -87 -105 7 -179 38 -250 103 -221 205 -174
602 87 734 128 65 291 59 387 -13 16 -12 36 -26 43 -30 9 -6 12 35 12 188 0
190 -1 196 -23 222 -20 23 -34 28 -86 32 -60 4 -62 5 -59 30 3 25 8 27 143 53
77 14 150 27 162 28 l22 1 3 -608z m-5611 539 c52 -52 33 -138 -36 -161 -75
-25 -151 50 -125 124 24 70 108 90 161 37z m6138 3 c26 -21 31 -33 31 -68 0
-51 -20 -81 -64 -96 -76 -25 -152 49 -126 124 23 68 102 88 159 40z m-10976
-52 c130 -64 241 -218 287 -398 28 -105 30 -289 5 -389 -48 -193 -160 -346
-305 -414 -47 -22 -69 -26 -150 -26 -86 0 -101 3 -164 33 -132 62 -244 212
-292 392 -28 100 -25 310 5 414 48 173 155 322 271 381 81 41 97 45 191 42 74
-3 96 -8 152 -35z m1099 0 c77 -38 130 -92 166 -171 22 -47 26 -69 25 -141 -1
-102 -28 -183 -99 -293 -55 -87 -264 -296 -381 -382 -45 -33 -82 -63 -83 -67
0 -12 340 -9 384 3 51 14 87 54 113 121 18 46 24 53 50 56 l30 3 -18 -103
c-11 -57 -25 -134 -32 -173 l-12 -70 -375 0 -375 0 -3 22 c-2 16 17 40 75 94
328 304 488 512 522 677 14 68 14 176 0 227 -34 122 -147 188 -267 156 -92
-25 -151 -110 -152 -219 0 -103 47 -168 138 -187 36 -7 36 -8 22 -36 -32 -59
-161 -66 -227 -12 -21 16 -49 50 -63 74 -21 37 -25 57 -25 129 0 69 5 93 23
127 47 89 117 147 227 186 39 13 75 17 160 15 102 -3 116 -6 177 -36z m1053
19 c163 -19 291 -79 400 -186 242 -237 245 -653 6 -878 -45 -42 -96 -78 -143
-101 -134 -64 -162 -68 -575 -73 l-373 -5 0 36 0 36 45 0 c67 0 113 23 130 64
22 51 22 940 1 991 -15 34 -47 50 -116 57 -20 2 -26 9 -28 36 l-3 32 288 0
c158 0 324 -4 368 -9z m6015 -306 l0 -105 110 0 110 0 0 -35 0 -35 -110 0
-110 0 0 -275 c0 -158 5 -295 11 -324 13 -63 45 -91 101 -91 47 0 75 13 105
48 18 22 24 24 37 13 25 -21 19 -40 -22 -81 -42 -43 -92 -60 -171 -60 -113 0
-188 47 -210 133 -7 29 -11 152 -11 341 l0 296 -45 0 c-43 0 -45 1 -45 29 0
25 10 37 60 72 60 42 121 113 134 157 5 15 15 22 32 22 24 0 24 0 24 -105z
m-4678 -81 c106 -36 176 -134 185 -260 l6 -74 -293 0 -293 0 5 -109 c4 -98 8
-116 37 -175 90 -183 291 -218 444 -77 l44 41 24 -26 24 -26 -50 -46 c-77 -70
-162 -105 -266 -110 -239 -12 -406 127 -441 364 -21 144 28 299 123 394 112
112 301 156 451 104z m741 -6 c44 -19 49 -19 66 -4 36 33 41 21 41 -99 0 -107
-1 -115 -19 -115 -14 0 -27 16 -44 53 -44 93 -100 133 -176 124 -106 -12 -137
-133 -51 -205 8 -7 71 -50 140 -96 146 -96 204 -156 219 -224 17 -82 -9 -171
-66 -223 -56 -53 -91 -64 -193 -64 -97 0 -139 10 -193 47 l-27 19 -18 -30 c-9
-17 -25 -31 -34 -31 -16 0 -18 13 -18 141 0 138 0 140 21 137 16 -2 27 -18 42
-56 30 -79 90 -141 153 -157 64 -16 132 -4 164 30 30 32 38 106 15 141 -9 14
-74 63 -145 109 -208 136 -240 174 -240 285 0 72 19 123 63 168 78 82 183 99
300 50z m649 -740 c17 -25 69 -48 111 -48 12 0 17 -8 17 -30 l0 -30 -230 0
-230 0 0 29 c0 25 4 30 37 36 63 12 91 32 102 73 13 46 14 492 1 547 -11 50
-28 62 -97 71 -51 6 -54 8 -51 33 3 25 7 27 158 56 l155 30 5 -370 c4 -330 7
-374 22 -397z m688 756 c40 -9 85 -27 109 -44 l40 -29 51 34 c28 19 69 39 91
45 77 21 159 -23 159 -86 0 -67 -61 -84 -131 -37 -39 26 -42 26 -82 12 -28
-10 -41 -20 -38 -29 2 -8 10 -37 18 -65 18 -63 10 -154 -18 -212 -48 -99 -151
-152 -339 -173 -108 -13 -144 -26 -148 -57 -6 -38 33 -51 193 -68 152 -16 260
-36 297 -56 39 -21 100 -83 121 -123 15 -30 21 -60 21 -111 2 -123 -52 -195
-183 -246 -45 -18 -83 -23 -196 -27 -202 -6 -309 23 -389 103 -68 68 -70 160
-5 229 36 39 40 41 98 41 44 0 65 -5 78 -17 15 -15 15 -18 2 -18 -8 0 -28 -13
-44 -30 -22 -23 -29 -41 -33 -82 -5 -63 15 -95 81 -131 38 -20 56 -22 182 -22
155 1 187 9 240 65 27 28 30 38 30 95 0 57 -3 67 -30 95 -16 18 -42 38 -57 46
-15 8 -112 25 -217 38 -245 32 -292 55 -307 148 -11 66 46 145 119 163 40 10
41 21 3 43 -43 25 -83 78 -107 142 -60 159 36 322 215 366 70 17 96 17 176 -2z
m1243 -16 c55 -24 101 -72 118 -125 7 -23 14 -147 18 -318 4 -192 10 -287 18
-301 13 -22 60 -44 94 -44 14 0 19 -7 19 -30 l0 -30 -207 2 -208 3 -3 28 c-3
23 0 27 21 27 47 0 85 20 99 53 18 44 18 448 -1 530 -23 104 -92 156 -192 144
-65 -8 -119 -37 -166 -91 -58 -66 -63 -93 -63 -348 0 -211 1 -227 20 -251 14
-18 34 -28 65 -33 41 -6 45 -9 45 -35 l0 -29 -210 0 -210 0 0 29 c0 26 4 29
44 35 81 12 81 12 84 310 4 362 2 376 -84 385 -44 5 -49 9 -49 31 0 23 7 26
123 54 97 23 125 27 132 17 4 -7 10 -40 14 -74 3 -33 8 -62 10 -64 2 -3 25 15
50 40 113 107 283 142 419 85z m780 0 c44 -19 49 -19 66 -4 36 33 41 21 41
-99 0 -107 -1 -115 -19 -115 -14 0 -27 16 -44 53 -44 96 -109 138 -190 123
-47 -9 -78 -46 -84 -99 -5 -39 -2 -48 28 -82 19 -21 86 -72 149 -113 148 -95
206 -151 226 -217 32 -110 -16 -222 -121 -278 -33 -18 -57 -22 -135 -22 -87 0
-102 3 -158 31 l-63 31 -17 -29 c-9 -16 -23 -27 -32 -26 -12 3 -15 27 -18 141
l-3 137 26 0 c16 0 25 -6 25 -16 0 -29 49 -119 84 -153 69 -67 194 -73 248
-12 33 37 38 102 12 139 -9 13 -71 60 -138 104 -162 107 -200 140 -225 191
-39 81 -24 192 36 258 80 88 185 108 306 57z m3429 -740 c17 -25 69 -48 111
-48 12 0 17 -8 17 -30 l0 -30 -230 0 -230 0 0 29 c0 27 4 30 42 36 56 10 84
29 97 67 14 38 14 496 1 553 -11 50 -28 62 -97 71 -51 6 -54 8 -51 32 3 26 8
27 158 57 l155 31 5 -371 c4 -330 7 -374 22 -397z m836 741 c318 -110 404
-508 160 -735 -102 -93 -209 -131 -348 -121 -176 12 -320 119 -382 282 -33 85
-32 245 1 325 58 141 186 242 341 270 61 11 164 2 228 -21z m-3066 -296 c5
-345 10 -376 74 -433 30 -26 43 -30 90 -30 99 0 160 48 218 170 29 63 31 70
34 232 5 178 -1 244 -22 273 -7 9 -35 23 -62 30 -42 10 -49 16 -52 39 l-3 26
150 0 151 0 0 -352 c0 -212 4 -368 10 -390 9 -31 17 -39 48 -48 20 -5 47 -10
60 -10 17 0 22 -6 22 -24 0 -31 -7 -33 -151 -41 l-116 -7 -7 48 c-3 26 -6 63
-6 83 0 20 -5 43 -10 51 -6 9 -10 10 -10 3 0 -25 -103 -123 -156 -149 -156
-76 -362 -14 -404 121 -8 25 -15 142 -19 315 -4 188 -10 282 -18 296 -13 22
-60 44 -94 44 -14 0 -19 7 -19 30 l0 30 144 0 144 0 4 -307z"/>
<path d="M8472 13816 l-173 -291 241 -3 c132 -1 347 -1 479 0 l238 3 -230 220
c-126 121 -264 252 -306 291 l-76 71 -173 -291z"/>
<path d="M8097 13795 c-230 -140 -425 -259 -435 -264 -12 -7 72 -10 268 -10
l285 0 153 261 c84 143 151 262 149 264 -2 2 -191 -111 -420 -251z"/>
<path d="M7837 13335 c100 -58 186 -105 191 -105 7 0 84 120 129 203 2 4 -110
7 -249 7 l-253 0 182 -105z"/>
<path d="M8175 13314 c-42 -70 -72 -130 -68 -134 7 -6 3725 -2151 3758 -2167
21 -11 -156 160 -1319 1276 l-1200 1151 -547 0 -548 0 -76 -126z"/>
<path d="M9451 13437 c2 -2 561 -538 1241 -1190 681 -653 1240 -1187 1243
-1187 2 0 -29 57 -70 128 -41 70 -351 604 -689 1187 l-615 1060 -557 3 c-307
1 -556 1 -553 -1z"/>
<path d="M7530 13414 c0 -4 -287 -1297 -358 -1612 -6 -24 -8 -41 -5 -39 9 10
823 1390 823 1396 -1 6 -442 261 -453 261 -4 0 -7 -3 -7 -6z"/>
<path d="M7607 12362 c-382 -646 -445 -758 -430 -764 10 -4 191 -32 403 -62
212 -30 1263 -184 2335 -341 1073 -157 1955 -284 1962 -283 6 2 -111 73 -260
160 -150 86 -693 399 -1207 695 -2078 1198 -2330 1343 -2342 1348 -8 3 -172
-264 -461 -753z"/>
<path d="M7215 11492 c17 -16 480 -425 1030 -908 550 -483 1070 -940 1156
-1015 l156 -138 1205 692 c663 381 1205 693 1203 695 -1 1 -339 51 -751 112
-1480 216 -2134 312 -3049 445 -511 74 -941 137 -955 141 -25 5 -25 5 5 -24z"/>
<path d="M7236 11343 c1021 -1750 1411 -2412 1421 -2410 27 5 832 462 825 468
-4 3 -511 449 -1127 990 -616 542 -1126 989 -1134 994 -8 4 -1 -14 15 -42z"/>
<path d="M10815 10069 c-660 -378 -1198 -692 -1197 -696 2 -4 91 -110 198
-235 l194 -228 473 0 472 0 534 921 c293 506 531 922 530 923 -2 2 -544 -306
-1204 -685z"/>
<path d="M11533 9762 l-491 -847 311 -3 c171 -1 314 1 318 5 7 7 359 1685 355
1690 -1 1 -223 -379 -493 -845z"/>
<path d="M9175 9134 c-204 -113 -374 -210 -379 -215 -6 -5 219 -9 554 -9 535
0 562 1 548 18 -214 252 -324 380 -337 394 -15 17 -39 5 -386 -188z"/>
<path d="M10086 8828 c6 -10 432 -512 483 -570 4 -5 321 530 339 574 2 4 -184
8 -413 8 -330 0 -415 -3 -409 -12z"/>
<path d="M10844 8577 c-84 -144 -150 -264 -148 -266 1 -2 200 116 440 263
l438 266 -290 0 -289 -1 -151 -262z"/>
<path d="M13806 6196 c-84 -31 -136 -113 -157 -247 -32 -206 42 -421 157 -459
61 -20 155 -9 210 26 98 60 118 126 112 368 -4 174 -9 194 -65 250 -60 61
-181 90 -257 62z"/>
<path d="M3585 6576 c-73 -33 -121 -114 -152 -256 -26 -123 -26 -472 0 -583
45 -193 106 -256 245 -257 191 0 266 156 264 550 -1 323 -52 490 -166 544 -42
20 -149 21 -191 2z"/>
<path d="M5682 6568 c-15 -15 -17 -894 -2 -949 26 -94 157 -145 313 -119 113
18 175 47 237 109 90 90 126 185 136 356 12 189 -39 368 -135 476 -51 59 -156
115 -241 128 -91 15 -293 14 -308 -1z"/>
<path d="M7096 6196 c-65 -24 -112 -82 -136 -167 l-9 -29 184 0 c157 0 186 2
200 17 33 32 -5 132 -62 166 -43 25 -128 31 -177 13z"/>
<path d="M9290 6219 c-78 -17 -127 -120 -118 -249 12 -158 116 -251 214 -191
77 47 107 238 55 356 -31 70 -83 98 -151 84z"/>
<path d="M15477 6199 c-52 -15 -130 -88 -155 -146 -84 -195 -32 -459 107 -541
38 -23 57 -27 116 -27 111 1 180 47 229 155 68 149 51 358 -40 477 -53 70
-167 107 -257 82z"/>
</g>
</svg>
