<?xml version="1.0" standalone="no"?>
<!DOCTYPE svg PUBLIC "-//W3C//DTD SVG 20010904//EN"
 "http://www.w3.org/TR/2001/REC-SVG-20010904/DTD/svg10.dtd">
<svg version="1.0" xmlns="http://www.w3.org/2000/svg"
 width="500.000000pt" height="500.000000pt" viewBox="0 0 500.000000 500.000000"
 preserveAspectRatio="xMidYMid meet">

<g transform="translate(0.000000,500.000000) scale(0.100000,-0.100000)"
fill="#000000" stroke="none">
<path d="M400 3591 l0 -258 173 -6 c384 -12 679 -120 990 -363 l68 -53 185 92
c101 50 184 94 184 97 0 11 -689 521 -763 565 -144 87 -334 152 -507 175 -41
5 -132 10 -202 10 l-128 0 0 -259z"/>
<path d="M4155 3108 c-86 -10 -204 -37 -299 -70 -33 -12 -239 -110 -459 -219
l-399 -198 195 -145 c106 -80 198 -146 204 -146 6 0 80 33 164 74 317 153 511
195 902 196 l137 0 0 260 0 260 -182 -1 c-101 -1 -219 -6 -263 -11z"/>
<path d="M2587 2419 l-177 -89 652 -490 c432 -324 687 -508 752 -544 193 -107
433 -166 670 -166 l116 0 0 259 0 258 -167 6 c-255 10 -459 59 -664 163 -138
69 -169 90 -590 405 -212 159 -392 289 -400 288 -8 0 -94 -40 -192 -90z"/>
<path d="M1735 1991 c-612 -308 -677 -329 -1092 -338 l-243 -5 0 -260 0 -260
243 5 c253 5 302 12 462 63 46 14 378 173 787 376 l706 352 -199 148 c-110 81
-203 148 -207 147 -4 -1 -209 -103 -457 -228z"/>
</g>
</svg>
