<svg width="326" height="360" viewBox="0 0 326 360" fill="none" xmlns="http://www.w3.org/2000/svg" style="display: inline-block; height: 1em; transform: scale(1.3) translateY(-20%);">
<path d="M13 346.502H313.152" stroke="#0F0F0F" stroke-width="25.0127" stroke-linecap="round" stroke-linejoin="round"/>
<path d="M56.355 119.385H29.6751C20.5038 119.385 13 126.889 13 136.06V279.8C13 288.972 20.5038 296.475 29.6751 296.475H56.355C65.5263 296.475 73.0301 288.972 73.0301 279.8V136.06C73.0301 126.889 65.5263 119.385 56.355 119.385Z" stroke="#0F0F0F" stroke-width="25.0127" stroke-linecap="round" stroke-linejoin="round"/>
<path d="M176.401 66.1926H149.722C140.551 66.1926 133.047 73.6964 133.047 82.8677V279.8C133.047 288.972 140.551 296.475 149.722 296.475H176.401C185.572 296.475 193.076 288.972 193.076 279.8V82.8677C193.076 73.6964 185.572 66.1926 176.401 66.1926Z" stroke="#0F0F0F" stroke-width="25.0127" stroke-linecap="round" stroke-linejoin="round"/>
<path d="M296.484 13H269.804C260.633 13 253.129 20.5038 253.129 29.6751V279.802C253.129 288.973 260.633 296.477 269.804 296.477H296.484C305.656 296.477 313.159 288.973 313.159 279.802V29.6751C313.159 20.5038 305.656 13 296.484 13Z" stroke="#0F0F0F" stroke-width="25.0127" stroke-linecap="round" stroke-linejoin="round"/>
</svg>
