
<svg width="50" height="50" viewBox="0 0 50 50" fill="none" xmlns="http://www.w3.org/2000/svg" xmlns:xlink="http://www.w3.org/1999/xlink">
<path d="M12.5 21.875H21.875V25H12.5V21.875ZM12.5 9.375H31.25V12.5H12.5V9.375ZM12.5 15.625H31.25V18.75H12.5V15.625ZM12.5 37.5H21.875V40.625H12.5V37.5ZM46.875 37.5V34.375H43.5922C43.3907 33.3969 43.0023 32.4669 42.4484 31.6359L44.7766 29.3078L42.5672 27.0984L40.2391 29.4266C39.4081 28.8727 38.4781 28.4843 37.5 28.2828V25H34.375V28.2828C33.3969 28.4843 32.4669 28.8727 31.6359 29.4266L29.3078 27.0984L27.0984 29.3078L29.4266 31.6359C28.8727 32.4669 28.4843 33.3969 28.2828 34.375H25V37.5H28.2828C28.4843 38.4781 28.8727 39.4081 29.4266 40.2391L27.0984 42.5672L29.3078 44.7766L31.6359 42.4484C32.4669 43.0023 33.3969 43.3907 34.375 43.5922V46.875H37.5V43.5922C38.4781 43.3907 39.4081 43.0023 40.2391 42.4484L42.5672 44.7766L44.7766 42.5672L42.4484 40.2391C43.0023 39.4081 43.3907 38.4781 43.5922 37.5H46.875ZM35.9375 40.625C35.0104 40.625 34.1041 40.3501 33.3333 39.835C32.5624 39.3199 31.9616 38.5879 31.6068 37.7313C31.252 36.8748 31.1592 35.9323 31.3401 35.023C31.5209 34.1137 31.9674 33.2785 32.6229 32.6229C33.2785 31.9674 34.1137 31.5209 35.023 31.3401C35.9323 31.1592 36.8748 31.252 37.7313 31.6068C38.5879 31.9616 39.3199 32.5624 39.835 33.3333C40.3501 34.1041 40.625 35.0104 40.625 35.9375C40.6238 37.1803 40.1295 38.3719 39.2507 39.2507C38.3719 40.1295 37.1803 40.6238 35.9375 40.625Z" fill="#F2F2F2"/>
<path d="M12.5 21.875H21.875V25H12.5V21.875ZM12.5 9.375H31.25V12.5H12.5V9.375ZM12.5 15.625H31.25V18.75H12.5V15.625ZM12.5 37.5H21.875V40.625H12.5V37.5ZM46.875 37.5V34.375H43.5922C43.3907 33.3969 43.0023 32.4669 42.4484 31.6359L44.7766 29.3078L42.5672 27.0984L40.2391 29.4266C39.4081 28.8727 38.4781 28.4843 37.5 28.2828V25H34.375V28.2828C33.3969 28.4843 32.4669 28.8727 31.6359 29.4266L29.3078 27.0984L27.0984 29.3078L29.4266 31.6359C28.8727 32.4669 28.4843 33.3969 28.2828 34.375H25V37.5H28.2828C28.4843 38.4781 28.8727 39.4081 29.4266 40.2391L27.0984 42.5672L29.3078 44.7766L31.6359 42.4484C32.4669 43.0023 33.3969 43.3907 34.375 43.5922V46.875H37.5V43.5922C38.4781 43.3907 39.4081 43.0023 40.2391 42.4484L42.5672 44.7766L44.7766 42.5672L42.4484 40.2391C43.0023 39.4081 43.3907 38.4781 43.5922 37.5H46.875ZM35.9375 40.625C35.0104 40.625 34.1041 40.3501 33.3333 39.835C32.5624 39.3199 31.9616 38.5879 31.6068 37.7313C31.252 36.8748 31.1592 35.9323 31.3401 35.023C31.5209 34.1137 31.9674 33.2785 32.6229 32.6229C33.2785 31.9674 34.1137 31.5209 35.023 31.3401C35.9323 31.1592 36.8748 31.252 37.7313 31.6068C38.5879 31.9616 39.3199 32.5624 39.835 33.3333C40.3501 34.1041 40.625 35.0104 40.625 35.9375C40.6238 37.1803 40.1295 38.3719 39.2507 39.2507C38.3719 40.1295 37.1803 40.6238 35.9375 40.625Z" fill="url(#pattern0)" fill-opacity="0.1"/>
<path d="M21.875 46.875H9.375C8.54645 46.8742 7.75208 46.5447 7.16621 45.9588C6.58033 45.3729 6.25083 44.5785 6.25 43.75V6.25C6.25083 5.42145 6.58033 4.62708 7.16621 4.0412C7.75208 3.45533 8.54645 3.12583 9.375 3.125H34.375C35.2035 3.12583 35.9979 3.45533 36.5838 4.0412C37.1697 4.62708 37.4992 5.42145 37.5 6.25V21.875H34.375V6.25H9.375V43.75H21.875V46.875Z" fill="#F2F2F2"/>
<path d="M21.875 46.875H9.375C8.54645 46.8742 7.75208 46.5447 7.16621 45.9588C6.58033 45.3729 6.25083 44.5785 6.25 43.75V6.25C6.25083 5.42145 6.58033 4.62708 7.16621 4.0412C7.75208 3.45533 8.54645 3.12583 9.375 3.125H34.375C35.2035 3.12583 35.9979 3.45533 36.5838 4.0412C37.1697 4.62708 37.4992 5.42145 37.5 6.25V21.875H34.375V6.25H9.375V43.75H21.875V46.875Z" fill="url(#pattern1)" fill-opacity="0.1"/>
<defs>
<pattern id="pattern0" patternContentUnits="objectBoundingBox" width="41.8909" height="70.5867">
<use xlink:href="#image0_1151_4866" transform="scale(0.0290909 0.0266667)"/>
</pattern>
<pattern id="pattern1" patternContentUnits="objectBoundingBox" width="46.08" height="60.5029">
<use xlink:href="#image0_1151_4866" transform="scale(0.032 0.0228571)"/>
</pattern>
</defs>
</svg>
