<svg width="20" height="20" viewBox="0 0 20 20" fill="none" xmlns="http://www.w3.org/2000/svg">
<path d="M19.5864 17.2876C19.7175 17.4182 19.8215 17.5735 19.8925 17.7444C19.9635 17.9153 20 18.0986 20 18.2837C20 18.4688 19.9635 18.652 19.8925 18.823C19.8215 18.9939 19.7175 19.1491 19.5864 19.2798C19.321 19.5417 18.9632 19.6886 18.5903 19.6886C18.2174 19.6886 17.8596 19.5417 17.5942 19.2798L10.1528 11.8384L2.7114 19.2798C2.44603 19.5417 2.08817 19.6886 1.71531 19.6886C1.34244 19.6886 0.984582 19.5417 0.719212 19.2798C0.588112 19.1491 0.484092 18.9939 0.413115 18.823C0.342139 18.652 0.305603 18.4688 0.305603 18.2837C0.305603 18.0986 0.342139 17.9153 0.413115 17.7444C0.484092 17.5735 0.588112 17.4182 0.719212 17.2876L8.16062 9.84619L0.719212 2.40478C0.455032 2.1406 0.306616 1.7823 0.306616 1.40869C0.306616 1.2237 0.343053 1.04052 0.413847 0.869607C0.48464 0.698697 0.588403 0.543405 0.719212 0.412596C0.850021 0.281787 1.00531 0.178024 1.17622 0.10723C1.34713 0.036437 1.53031 0 1.71531 0C2.08891 0 2.44722 0.148415 2.7114 0.412596L10.1528 7.854L17.5942 0.412596C17.8584 0.148415 18.2167 0 18.5903 0C18.9639 0 19.3222 0.148415 19.5864 0.412596C19.8506 0.676776 19.999 1.03508 19.999 1.40869C19.999 1.7823 19.8506 2.1406 19.5864 2.40478L12.145 9.84619L19.5864 17.2876Z" fill="#0F0F0F"/>
</svg>
