<svg width="50" height="50" viewBox="0 0 50 50" fill="none" xmlns="http://www.w3.org/2000/svg" xmlns:xlink="http://www.w3.org/1999/xlink">
<g clip-path="url(#clip0_1151_4896)">
<path d="M12.5 24.1797V37.4991H25.8194L23.0417 34.7214H15.2778V26.9575L12.5 24.1797Z" fill="#F2F2F2"/>
<path d="M12.5 24.1797V37.4991H25.8194L23.0417 34.7214H15.2778V26.9575L12.5 24.1797Z" fill="url(#pattern0)" fill-opacity="0.1"/>
<path d="M48.4301 44.8473L44.444 40.8056V44.4445H5.55515V38.6806H8.33292V36.4584H5.55515V27.2223H8.33292V25H5.55515V16.1112H8.33292V13.8889H5.55515V6.12505L27.694 28.1389V24.2223L5.15237 1.79171C4.9581 1.59584 4.70991 1.46226 4.43942 1.40799C4.16894 1.35373 3.88843 1.38125 3.63364 1.48703C3.37886 1.59282 3.16135 1.77209 3.00885 2.00197C2.85635 2.23186 2.77576 2.50196 2.77737 2.77783V45.8334C2.77737 46.2017 2.9237 46.555 3.18416 46.8155C3.44463 47.0759 3.7979 47.2223 4.16626 47.2223H47.444C47.7199 47.2239 47.99 47.1433 48.2199 46.9908C48.4498 46.8383 48.629 46.6208 48.7348 46.366C48.8406 46.1112 48.8681 45.8307 48.8139 45.5602C48.7596 45.2897 48.626 45.0415 48.4301 44.8473Z" fill="#F2F2F2"/>
<path d="M48.4301 44.8473L44.444 40.8056V44.4445H5.55515V38.6806H8.33292V36.4584H5.55515V27.2223H8.33292V25H5.55515V16.1112H8.33292V13.8889H5.55515V6.12505L27.694 28.1389V24.2223L5.15237 1.79171C4.9581 1.59584 4.70991 1.46226 4.43942 1.40799C4.16894 1.35373 3.88843 1.38125 3.63364 1.48703C3.37886 1.59282 3.16135 1.77209 3.00885 2.00197C2.85635 2.23186 2.77576 2.50196 2.77737 2.77783V45.8334C2.77737 46.2017 2.9237 46.555 3.18416 46.8155C3.44463 47.0759 3.7979 47.2223 4.16626 47.2223H47.444C47.7199 47.2239 47.99 47.1433 48.2199 46.9908C48.4498 46.8383 48.629 46.6208 48.7348 46.366C48.8406 46.1112 48.8681 45.8307 48.8139 45.5602C48.7596 45.2897 48.626 45.0415 48.4301 44.8473Z" fill="url(#pattern1)" fill-opacity="0.1"/>
<path d="M33.3334 41.6678H38.889C39.6257 41.6678 40.3322 41.3751 40.8532 40.8542C41.3741 40.3333 41.6668 39.6267 41.6668 38.89V12.0845L38.4723 6.20947C38.2253 5.78144 37.8685 5.42708 37.4388 5.18293C37.0091 4.93879 36.5221 4.8137 36.0279 4.82058C35.5225 4.82459 35.0278 4.96639 34.5971 5.23071C34.1664 5.49503 33.8159 5.87185 33.5834 6.32058L30.5557 12.1122V38.89C30.5557 39.6267 30.8483 40.3333 31.3693 40.8542C31.8902 41.3751 32.5967 41.6678 33.3334 41.6678ZM33.3334 12.7789L36.0279 7.5428L38.889 12.7928V33.3345H33.3334V12.7789ZM33.3334 35.5984H38.889V38.9872H33.3334V35.5984Z" fill="#F2F2F2"/>
<path d="M33.3334 41.6678H38.889C39.6257 41.6678 40.3322 41.3751 40.8532 40.8542C41.3741 40.3333 41.6668 39.6267 41.6668 38.89V12.0845L38.4723 6.20947C38.2253 5.78144 37.8685 5.42708 37.4388 5.18293C37.0091 4.93879 36.5221 4.8137 36.0279 4.82058C35.5225 4.82459 35.0278 4.96639 34.5971 5.23071C34.1664 5.49503 33.8159 5.87185 33.5834 6.32058L30.5557 12.1122V38.89C30.5557 39.6267 30.8483 40.3333 31.3693 40.8542C31.8902 41.3751 32.5967 41.6678 33.3334 41.6678ZM33.3334 12.7789L36.0279 7.5428L38.889 12.7928V33.3345H33.3334V12.7789ZM33.3334 35.5984H38.889V38.9872H33.3334V35.5984Z" fill="url(#pattern2)" fill-opacity="0.1"/>
</g>
</svg>