<svg width="40" height="40" viewBox="0 0 20 20" fill="none" xmlns="http://www.w3.org/2000/svg" xmlns:xlink="http://www.w3.org/1999/xlink">
<path d="M18.6667 10.3333C18.6667 5.73333 14.9333 2 10.3333 2C5.73333 2 2 5.73333 2 10.3333C2 14.3667 4.86667 17.725 8.66667 18.5V12.8333H7V10.3333H8.66667V8.25C8.66667 6.64167 9.975 5.33333 11.5833 5.33333H13.6667V7.83333H12C11.5417 7.83333 11.1667 8.20833 11.1667 8.66667V10.3333H13.6667V12.8333H11.1667V18.625C15.375 18.2083 18.6667 14.6583 18.6667 10.3333Z" fill="#F2F2F2"/>
<path d="M18.6667 10.3333C18.6667 5.73333 14.9333 2 10.3333 2C5.73333 2 2 5.73333 2 10.3333C2 14.3667 4.86667 17.725 8.66667 18.5V12.8333H7V10.3333H8.66667V8.25C8.66667 6.64167 9.975 5.33333 11.5833 5.33333H13.6667V7.83333H12C11.5417 7.83333 11.1667 8.20833 11.1667 8.66667V10.3333H13.6667V12.8333H11.1667V18.625C15.375 18.2083 18.6667 14.6583 18.6667 10.3333Z" fill="url(#pattern0)" fill-opacity="0.1"/>
</svg>