<svg width="48" height="48" viewBox="0 0 48 48" fill="none" xmlns="http://www.w3.org/2000/svg" xmlns:xlink="http://www.w3.org/1999/xlink">
<path d="M39.0938 35.9062C39.3035 36.1153 39.47 36.3637 39.5835 36.6372C39.6971 36.9106 39.7556 37.2039 39.7556 37.5C39.7556 37.7961 39.6971 38.0893 39.5835 38.3628C39.47 38.6363 39.3035 38.8847 39.0938 39.0937C38.6692 39.5128 38.0966 39.7478 37.5 39.7478C36.9034 39.7478 36.3309 39.5128 35.9063 39.0937L24 27.1875L12.0938 39.0937C11.6692 39.5128 11.0966 39.7478 10.5 39.7478C9.90345 39.7478 9.33087 39.5128 8.90628 39.0937C8.69652 38.8847 8.53009 38.6363 8.41653 38.3628C8.30296 38.0893 8.24451 37.7961 8.24451 37.5C8.24451 37.2039 8.30296 36.9106 8.41653 36.6372C8.53009 36.3637 8.69652 36.1153 8.90628 35.9062L20.8125 24L8.90628 12.0937C8.48359 11.6711 8.24613 11.0978 8.24613 10.5C8.24613 10.204 8.30443 9.91092 8.4177 9.63747C8.53097 9.36401 8.69699 9.11554 8.90628 8.90625C9.11558 8.69695 9.36404 8.53093 9.6375 8.41766C9.91096 8.30439 10.204 8.24609 10.5 8.24609C11.0978 8.24609 11.6711 8.48356 12.0938 8.90625L24 20.8125L35.9063 8.90625C36.329 8.48356 36.9023 8.24609 37.5 8.24609C38.0978 8.24609 38.6711 8.48356 39.0938 8.90625C39.5165 9.32894 39.7539 9.90222 39.7539 10.5C39.7539 11.0978 39.5165 11.6711 39.0938 12.0937L27.1875 24L39.0938 35.9062Z" fill="#F2F2F2"/>
<path d="M39.0938 35.9062C39.3035 36.1153 39.47 36.3637 39.5835 36.6372C39.6971 36.9106 39.7556 37.2039 39.7556 37.5C39.7556 37.7961 39.6971 38.0893 39.5835 38.3628C39.47 38.6363 39.3035 38.8847 39.0938 39.0937C38.6692 39.5128 38.0966 39.7478 37.5 39.7478C36.9034 39.7478 36.3309 39.5128 35.9063 39.0937L24 27.1875L12.0938 39.0937C11.6692 39.5128 11.0966 39.7478 10.5 39.7478C9.90345 39.7478 9.33087 39.5128 8.90628 39.0937C8.69652 38.8847 8.53009 38.6363 8.41653 38.3628C8.30296 38.0893 8.24451 37.7961 8.24451 37.5C8.24451 37.2039 8.30296 36.9106 8.41653 36.6372C8.53009 36.3637 8.69652 36.1153 8.90628 35.9062L20.8125 24L8.90628 12.0937C8.48359 11.6711 8.24613 11.0978 8.24613 10.5C8.24613 10.204 8.30443 9.91092 8.4177 9.63747C8.53097 9.36401 8.69699 9.11554 8.90628 8.90625C9.11558 8.69695 9.36404 8.53093 9.6375 8.41766C9.91096 8.30439 10.204 8.24609 10.5 8.24609C11.0978 8.24609 11.6711 8.48356 12.0938 8.90625L24 20.8125L35.9063 8.90625C36.329 8.48356 36.9023 8.24609 37.5 8.24609C38.0978 8.24609 38.6711 8.48356 39.0938 8.90625C39.5165 9.32894 39.7539 9.90222 39.7539 10.5C39.7539 11.0978 39.5165 11.6711 39.0938 12.0937L27.1875 24L39.0938 35.9062Z" fill="url(#pattern0)" fill-opacity="0.1"/>
</svg>