<svg width="40" height="40" viewBox="0 0 20 20" fill="none" xmlns="http://www.w3.org/2000/svg" xmlns:xlink="http://www.w3.org/1999/xlink">
<path d="M16.335 16.339H13.67V12.162C13.67 11.166 13.65 9.884 12.28 9.884C10.891 9.884 10.679 10.968 10.679 12.089V16.339H8.013V7.75H10.573V8.92H10.608C10.966 8.246 11.836 7.533 13.136 7.533C15.836 7.533 16.336 9.311 16.336 11.624V16.339H16.335ZM5.003 6.575C4.79956 6.57526 4.59806 6.53537 4.41006 6.45761C4.22207 6.37984 4.05127 6.26574 3.90746 6.12184C3.76365 5.97793 3.64965 5.80706 3.57201 5.61901C3.49437 5.43097 3.4546 5.22944 3.455 5.026C3.4552 4.71983 3.54618 4.4206 3.71644 4.16615C3.8867 3.91169 4.12859 3.71343 4.41153 3.59645C4.69447 3.47947 5.00574 3.44902 5.30598 3.50894C5.60622 3.56886 5.88196 3.71648 6.09831 3.93311C6.31466 4.14974 6.46191 4.42566 6.52145 4.72598C6.58099 5.0263 6.55013 5.33753 6.43278 5.62032C6.31544 5.9031 6.11687 6.14474 5.86219 6.31467C5.60751 6.4846 5.30917 6.5752 5.003 6.575ZM6.339 16.339H3.666V7.75H6.34V16.339H6.339ZM17.67 1H2.329C1.593 1 1 1.58 1 2.297V17.703C1 18.42 1.594 19 2.328 19H17.666C18.4 19 19 18.42 19 17.703V2.297C19 1.58 18.4 1 17.666 1H17.67Z" fill="#F2F2F2"/>
<path d="M16.335 16.339H13.67V12.162C13.67 11.166 13.65 9.884 12.28 9.884C10.891 9.884 10.679 10.968 10.679 12.089V16.339H8.013V7.75H10.573V8.92H10.608C10.966 8.246 11.836 7.533 13.136 7.533C15.836 7.533 16.336 9.311 16.336 11.624V16.339H16.335ZM5.003 6.575C4.79956 6.57526 4.59806 6.53537 4.41006 6.45761C4.22207 6.37984 4.05127 6.26574 3.90746 6.12184C3.76365 5.97793 3.64965 5.80706 3.57201 5.61901C3.49437 5.43097 3.4546 5.22944 3.455 5.026C3.4552 4.71983 3.54618 4.4206 3.71644 4.16615C3.8867 3.91169 4.12859 3.71343 4.41153 3.59645C4.69447 3.47947 5.00574 3.44902 5.30598 3.50894C5.60622 3.56886 5.88196 3.71648 6.09831 3.93311C6.31466 4.14974 6.46191 4.42566 6.52145 4.72598C6.58099 5.0263 6.55013 5.33753 6.43278 5.62032C6.31544 5.9031 6.11687 6.14474 5.86219 6.31467C5.60751 6.4846 5.30917 6.5752 5.003 6.575ZM6.339 16.339H3.666V7.75H6.34V16.339H6.339ZM17.67 1H2.329C1.593 1 1 1.58 1 2.297V17.703C1 18.42 1.594 19 2.328 19H17.666C18.4 19 19 18.42 19 17.703V2.297C19 1.58 18.4 1 17.666 1H17.67Z" fill="url(#pattern0)" fill-opacity="0.1"/>
</svg>